/* XPM */
static char *_3b55793841d44ab8beceac469537870ko7seUmyAl7wGMlq[] = {
/* columns rows colors chars-per-pixel */
"64 64 173 2 ",
"   c #773E3B",
".  c #79413D",
"X  c #743B43",
"o  c #7D4B4D",
"O  c #7A4343",
"+  c #965836",
"@  c #975939",
"#  c #965838",
"$  c #9B603C",
"%  c #824E4A",
"&  c #804A46",
"*  c #83504E",
"=  c #915B48",
"-  c #814F51",
";  c #865554",
":  c #8C5C5A",
">  c #895856",
",  c #9E6442",
"<  c #9E6548",
"1  c #8F605B",
"2  c #91635C",
"3  c #9A6857",
"4  c #A06845",
"5  c #A36C4E",
"6  c #A56F50",
"7  c #A77354",
"8  c #A97856",
"9  c #AB7B5B",
"0  c #926661",
"q  c #996D64",
"w  c #976D68",
"e  c #986E68",
"r  c #9A7067",
"t  c #9E7671",
"y  c #A17B75",
"u  c #A17B7B",
"i  c #A67B65",
"p  c #AF805F",
"a  c #97A65A",
"s  c #98A75A",
"d  c #9BAB5D",
"f  c #9FB05E",
"g  c #A1B15F",
"h  c #B18463",
"j  c #B48965",
"k  c #B68B6A",
"l  c #A6837E",
"z  c #AB8477",
"x  c #B68E74",
"c  c #BC987A",
"v  c #9BAB61",
"b  c #A1AF69",
"n  c #A4B561",
"m  c #ABBC65",
"M  c #A9B575",
"N  c #C4A37D",
"B  c #AEC066",
"V  c #AEC968",
"C  c #B0C267",
"Z  c #B2C569",
"A  c #B4CC6A",
"S  c #B9CF6D",
"D  c #BCD16E",
"F  c #B8CF73",
"G  c #BED371",
"H  c #C0D470",
"J  c #C5D77B",
"K  c #C6D87D",
"L  c #AD8B82",
"P  c #B89A85",
"I  c #B3BE86",
"U  c #BAA396",
"Y  c #C8AB82",
"T  c #CCB28E",
"R  c #C1A890",
"E  c #C9B094",
"W  c #D2B494",
"Q  c #D6B997",
"!  c #D6BB98",
"~  c #C9B5AC",
"^  c #CBB9AF",
"/  c #D4BEA9",
"(  c #CFBEB4",
")  c #CAB7B1",
"_  c #B9C38E",
"`  c #B6C18D",
"'  c #BAC490",
"]  c #C8D983",
"[  c #DBCB9E",
"{  c #D1DF98",
"}  c #E4C49E",
"|  c #D3E09C",
" . c #D9CDA6",
".. c #D5C1AD",
"X. c #DACEA8",
"o. c #D6DFA3",
"O. c #DCD0A8",
"+. c #CDC5B1",
"@. c #D6C4B2",
"#. c #D8C7B3",
"$. c #D6C9B4",
"%. c #D5DAB9",
"&. c #D9D0B4",
"*. c #E5C7A0",
"=. c #E7CCA4",
"-. c #E8CFA6",
";. c #E1D4A6",
":. c #E9D0A7",
">. c #EAD4AA",
",. c #E5DAAC",
"<. c #ECDAAE",
"1. c #F2DBAD",
"2. c #F0D7AC",
"3. c #EDDEB1",
"4. c #D6E2A4",
"5. c #D9E3A9",
"6. c #EEE2B4",
"7. c #EDE9BA",
"8. c #F4E7B7",
"9. c #F3E4BD",
"0. c #F1EBBB",
"q. c #FFEEBB",
"w. c #F3F1BE",
"e. c #E3D9C9",
"r. c #E6DFD0",
"t. c #DDE1C5",
"y. c #E3EAC5",
"u. c #E2E7CC",
"i. c #E6ECCA",
"p. c #F3E5C3",
"a. c #F3EBC2",
"s. c #F3E6C9",
"d. c #F3EACC",
"f. c #EBF4CF",
"g. c #F3F2C0",
"h. c #F6F9C5",
"j. c #F8F9C7",
"k. c #F3F2CB",
"l. c #FBFECA",
"z. c #F7FDC9",
"x. c #EAE6D7",
"c. c #E6E9D4",
"v. c #E8EBD6",
"b. c #E9E6D9",
"n. c #EBECD8",
"m. c #E3E7D0",
"M. c #F3EED3",
"N. c #F3EED9",
"B. c #EBF2D2",
"V. c #EDF0D9",
"C. c #F3F3D3",
"Z. c #FFFFD1",
"A. c #F1F5DC",
"S. c #FFFFDD",
"D. c #EFEEE1",
"F. c #F1EFE4",
"G. c #F3F4E7",
"H. c #F3F4EB",
"J. c #F6FAED",
"K. c #F8FBEE",
"L. c #F3F5F0",
"P. c #F3F4F0",
"I. c #F9FDF1",
"U. c #FBFFF7",
"Y. c #FEFFF6",
"T. c #FEFFF7",
"R. c #FDFFFA",
"E. c #FDFFFB",
"W. c #FDFEF9",
"Q. c white",
"!. c #FEFFFC",
"~. c #FFFFF9",
"^. c #F3F8F3",
/* pixels */
"A A D D D D S S D D H H H H H H H G S S D D S S D D H H H H H H H H H H H H D D S S D D D D D D D D D D S S D D H H H H H H D D ",
"A A D D D D S S D D H H H H H H G G S S D D S S D D H H H H H H H H H H H H D D S S D D D D D D D D D D S S D D H H H H H H D D ",
"H H H H H H H H H H H H H H H H H H H H H H H H H H G H H H H H H H H H H H H H H H H H H H H H H H H H H H H H H H H H H H H H ",
"H H H H H H H H H H H H H H H H H H H H H H H H H H H H H H H H H H H H H H H H H H H H H H H H H H H H H H H H H H H H H H H H ",
"A A S S H H H H H H A A A A H H H H H H H H H H H H D D V V D D G G V V D D H H H H H H H H H H H H H H H H H H H H H H H H H H ",
"A A S S H H H H H H A A A A H H H H H H H H H H H H D D V V D D G G V V D D H H H H H H H H H H H H H H H H H H H H H H H H H H ",
"S S D D H H H H H H S S S S H H H H H H H H H H H H D D A A G G H H A A D D H H H H H H H H H H H H H H H H S S A A H H H H H H ",
"S S D D H H H H H H S S S S H H H H H H H H H H H H D D A A G G H H A A D D H H H H H H H H H H H H H H H H S S A A H H H H H H ",
"H H H H H H H H H H H H H H H H H H H H H H H H H H H H H H H H H H H H H H H H H H H H H H H H H H H H H H S S A A H H H H H H ",
"H H H H H H H H H H H H H H H H H H H H H H H H H K V.V.V.V.V.V.V.V.V.V.V.V.V.K H H H H H H H H H H H H H H S S A A H H H H H H ",
"H H H H H H H H H H H H H H H H H H H H H H H H H ] G.G.G.G.G.G.G.G.G.G.G.G.G.] H H H H H H H H H H H H H H H H H H H H H H H H ",
"H H H H H H H H H H H H H H H H H H H H H H H H H H R.R.R.R.R.R.R.R.R.R.R.R.R.H H H H H H H H H H H H H H H H H H H H H H H H H ",
"H H H H H H H H H H H H H H H H H H H H H H ] | | o.@.#.#.#.#.#.#.#.#.#.#.#.@.o.| | ] H A A S S H H H H H H H H H H H H H H H H ",
"H H H H H H H H H H H H H H H H H H H H H H 5.G.I.r., 4 4 4 4 4 4 4 4 4 4 4 , r.I.G.5.H A A S S H H H H H H H H H H H H H H H H ",
"H H H H H H H H H H H H H H H H D D A A H H 4.J.U.x.6 7 7 7 7 7 7 7 7 7 7 7 6 x.U.J.4.H A A S S H H H H H H H H H H D D A A H H ",
"H H H H H H H H H H H H H H H H D D A G K K 4.x.D.e.h h h h h h h h h h h h h e.D.x.5.K G F S S H H H H H H H H H H D D A A H H ",
"H H H H H H H H H H H H H H H H S S A y.G.R...4 7 k h.w.w.w.w.w.w.w.w.w.w.w.h.k 7 4 ..R.G.i.H H H H H H H H H H H H S S A A H H ",
"H H H H H H H H H H H H H H H H S S A i.G.R./ , 7 j h.g.g.g.g.g.g.g.g.g.g.g.h.j 7 , / R.G.i.H H H H H H H H H H H H S S A A H H ",
"D D H H H H H H H H H H H H H H H H H B.U.!...+ < p h.g.g.g.g.g.w.w.w.w.g.g.h.p < + ..!.Y.f.H H H H H H H H H H H H H H H H H H ",
"D D H H H H H H H H H H H H H J i.i.B.E x x T ,.;.,.g.g.g.a.p.9.M.G.G.C.w.g.g.,.;.,.R u y U B.i.i.J H H H H H H H H H H H H H H ",
"S S H H H H H H H H H H H H H K G.G.U.x $ @ Y S.z.z.g.g.g.p.p.9.N.P.H.G.w.g.g.z.z.S.P   O y Y.G.G.K H H H H H H H H H H H H H H ",
"S S H H H H H H H H H H H H H H R.!.!.x @ # N Z.g.w.w.w.w.a.p.9.N.^.P.G.w.g.g.g.g.Z.P X O u !.R.R.H H H H H H H H H H H H H H H ",
"H H H H H H H H H H H H ] 4.4.4.../ ..T Y N [ j.w.g.C.C.C.p.p.9.d.N.N.M.w.g.g.g.g.z.! z x P ) ~ ~ 4.4.4.] H H H H H H H H H H H ",
"H H H H H H H H H H H H 4.G.J.x.4 , + ,.S.Z.z.w.w.k.H.H.H.s.9.p.9.9.9.9.g.g.g.g.g.h.8.1.q.!   & % x.K.G.4.H H H H H H H H H H H ",
"H H H H H H H H H H H H | G.J.x.9 8 5 ;.z.g.w.w.w.k.G.G.G.s.9.9.p.p.p.p.g.g.g.g.g.h.3.=.1.W ; 1 2 x.J.G.| H H H H H H H H H H H ",
"H H H H H H H H H H H H | G.J.x.9 8 5 ;.z.w.g.k.k.k.G.G.G.d.s.s.s.p.p.a.w.g.g.g.g.h.3.=.1.W ; 1 2 x.J.G.| H H H H H H H H H H H ",
"H H H H H H H H H H H H | G.J.x.9 8 5 ;.z.w.C.H.G.G.G.G.G.G.G.H.C.w.g.g.w.w.w.g.g.h.3.=.1.W ; 1 2 x.J.G.| H H H H H H H H H H H ",
"H H H H H H H H H H H H | G.J.x.9 8 5 ;.z.w.C.H.G.G.G.G.G.G.G.H.C.w.g.g.g.g.g.g.g.h.3.=.1.W ; 1 2 x.J.G.| H H H H H H H H H H H ",
"H H H H H H H H H H H H { I.U.F.7 7 < ;.z.w.C.P.G.G.G.G.G.G.G.P.C.w.g.g.g.w.g.w.g.h.3.=.1.W - > : D.Y.I.| H H H H H H H H H H H ",
"H H H H H H H H H y.v.A.&.h x c ,.,.,.0.h.w.a.s.s.d.G.G.G.k.k.k.k.w.g.g.g.g.g.g.g.h.3.=.:.=.Q ! Q z y e $.A.v.y.H H H H H H H H ",
"H H H H H H D D D G.G.!...@ 4 9 j.z.z.h.w.g.a.9.9.s.G.G.G.k.w.w.w.g.g.g.g.g.g.g.g.h.3.=.=.:.1.1.>.2 * . ) R.G.G.H H H H H H H H ",
"H H H H H H D D D V.G.R.#.4 8 j w.g.g.g.g.g.a.p.p.s.H.H.P.k.w.g.g.g.g.g.g.g.g.h.h.z.6.=.=.=.=.:.=.q : % ( R.G.V.H H H H H H H H ",
"H H H H H H A A A n.G.R.@.= 3 i w.h.g.g.g.g.a.a.a.a.C.C.C.k.w.g.g.g.g.g.g.g.g.6.6.6.<.=.=.:.:.:.=.q : % ( R.G.V.H H H H H H H H ",
"H H H H H H A A A n.G.R.( o > w 0.g.g.g.g.g.g.g.g.w.w.w.w.w.g.g.g.g.g.g.g.g.g.=.*.=.=.:.=.=.:.>.=.q : % ( R.G.V.H H H H H H H H ",
"H H H H H H D D D V.G.R.( % : r 0.g.g.g.g.g.g.g.g.g.g.g.g.g.g.g.g.g.g.w.g.g.g.>.=.=.=.=.=.=.:.:.=.q : % ( R.G.V.H H H H H H H H ",
"H H H H H H D D D n.G.R.( % : r 0.g.g.g.g.g.g.g.g.g.g.g.g.g.g.g.g.g.w.g.g.g.g.>.=.=.=.=.=.=.=.:.=.q : % ( R.G.n.H H H H H H H H ",
"H H H H H H H H Z v.G.R.( % : r w.h.g.g.g.g.g.g.g.g.g.g.g.g.g.g.g.g.g.g.g.g.g.>.=.=.=.=.:.=.=.:.=.q : % ( R.G.n.S H H H H H H H ",
"H H H H H H H S n v.G.R.( % : r w.h.g.g.g.g.g.g.g.g.g.g.g.g.g.g.g.g.g.g.g.g.g.>.=.=.=.=.=.=.=.:.=.q : % ( R.G.v.C G H H H H H H ",
"H H H H H H D m s v.G.R.( % : r w.h.g.g.g.g.g.g.g.g.g.g.g.g.g.g.g.g.g.g.g.g.g.>.=.=.:.=.:.:.:.:.=.q : % ( R.G.v.n A H H H H H H ",
"H H H H H G Z d a v.G.R.( % : r w.h.g.g.g.g.g.g.g.w.g.g.g.g.g.g.g.g.h.0.>.>.>.:.=.=.:.:.:.:.:.>.=.q : % ( R.G.v.d m D H H H H H ",
"H H H H H S n s a v.G.R.( % : r w.h.g.g.g.g.g.g.g.g.g.g.g.g.g.g.g.g.h.0.=.=.=.=.=.:.=.=.=.=.=.:.=.q : % ( R.G.v.a n A G H H H H ",
"H H H H D Z d a a v.G.R.( % : r w.h.g.g.g.g.g.g.g.g.g.g.g.g.g.w.h.h.h.w.=.=.=.=.:.:.:.:.=.=.=.:.=.q : % ( R.G.v.a d C D H H H H ",
"H H H H D m d a a v.G.R.( % : r w.h.g.g.g.w.g.g.g.g.g.g.g.g.g.h.0.<.6.<.=.:.=.=.:.:.:.:.:.:.=.:.=.q : % ( R.G.v.a d m D H H H H ",
"H H H H S n s a a v.G.R.( % : r w.h.g.g.g.g.g.g.g.g.g.g.g.g.g.h.3.} =.=.:.:.=.=.:.:.:.=.:.:.=.:.=.q : % ( R.G.v.a s m S H H H H ",
"H H H H S n s a a G.G.R.^   % 2 l.l.l.h.w.w.w.w.g.g.g.g.g.h.h.h.6.=.=.=.:.=.=.=.=.=.=.=.=.>.1.1.2.2 %   ^ R.G.G.a s m D H H H H ",
"H H H H S n s a a %.t.m.+.t l L X.O.X.7.h.w.w.g.g.g.g.g.g.0.0.0.3.=.=.=.:.:.=.=.=.=.=.=.>.*.W W W L l t +.u.t.%.a d m D H H H H ",
"H H H H D m s a a a a a I Y.!.G.; ; O  .l.w.g.g.g.g.g.g.h.>.=.=.=.=.=.=.:.:.:.:.=.=.=.=.1.W o ; > G.!.Y.I a a a a d C D H H H H ",
"H H H H D B d a a a a a ` G.J.x.2 : ; O.l.g.h.h.h.h.h.h.h.<.=.:.:.:.:.:.>.>.>.>.:.:.:.:.1.W ; : 2 x.J.G._ a a a a d A H H H H H ",
"H H H H D Z d a a a a a _ G.J.x.0 2 ; X.z.w.w.w.w.w.w.w.g.>.=.=.=.=.=.=.=.=.=.=.=.=.=.=.<.W > 2 0 x.J.G._ a a a a f S H H H H H ",
"H H H H G A d a a a a a v b b M x.x.F.L 2 r r r r r r r r q q q q q q q q q q q q q q q 2 L F.x.x.M b b d a a a s n S H H H H H ",
"H H H H H S n s a a a a a a a v J.J.!.l % : : : : : : : : : : : : : : : : : : : : : : : % l !.J.J.v a a a a a a d m D H H H H H ",
"H H H H H D m d a a a a a a a b G.G.Y.t   % % % % % % % % % % % % % % % % % % % % % % %   t Y.G.G.b a a a a a a d A H H H H H H ",
"H H H H H H A g a a a a a a a d _ _ ' +.^ ( ( ( ( ( ( ( ( ( ( ( ( ( ( ( ( ( ( ( ( ( ( ( ^ +.' _ _ d a a a a a d m D H H H H H H ",
"H H H H H H D B d a a a a a a a a a a u.R.R.R.R.R.R.R.R.R.R.R.R.R.R.R.R.R.R.R.R.R.R.R.R.R.u.a a a a a a a a a n S H H H H H H H ",
"A A D D H H H S m d a a a a a a a a a m.G.G.G.G.G.G.G.G.G.G.G.G.G.G.G.G.G.G.G.G.G.G.G.G.G.m.a a a a a a a a g Z H H H H D D A A ",
"A A D D H H H H D C d a a a a a a a a %.v.v.v.v.v.v.v.v.v.v.v.v.v.v.v.v.v.v.v.v.v.v.v.v.v.%.a a a a a a a d C D H H H H D D A A ",
"A A S S H H H H H G A m d a a a a a a a a a a a a a a a a a s a a a s s a a a a a a a a a a a a a a a a d B S H H H H H D D A A ",
"A A S S H H H H H H H D Z n d a a a a a a a a a a a a a a a s a a a s s a a a a a a a a a a a a a a s g B S H H H H H H D D A A ",
"H H H H H H H H H H H H D S Z m n d s s s a a a a a a a a a a a a a a a a a a a a a a a a a a s d f m Z S H H H H H H H H H H H ",
"H H H H H H H H H H H H H H D D S S Z B m n n n g d d d d d d d d d d d d s s s s s s s d d f n m Z S D H H H H H H H H H H H H ",
"G H H H H H H H H H H H H H H H H H H H H H H H H H H H H H H H H H H H H H H H H H H H H H H H H H H H H H H H H H H H H H H H ",
"H H H H H H H H H H H H H H H H H H H H H H H H H H H H H H H H H H H H H H H H H H H H H H H H H H H H H H H H H H H H H H H H ",
"H H D D S S S S S S D D H H H H H H H H H H H H H H S S S S S S S S S S S S H H H H H H H H H H H H H H H H H H H H H H H H H H ",
"H H D D S S S S S S D D H H H H H H H H H H H H H H S S S S S S S S S S S S H H H H H H H H H H H H H H H H H H H H H H H H H H "
};
