/* XPM */
static char *fa4f53a5de574951f6aa523f6ffdf59dsz9WxH6XdZkilCMy[] = {
/* columns rows colors chars-per-pixel */
"64 64 107 2 ",
"   c #131313",
".  c #151414",
"X  c #191716",
"o  c #1A1817",
"O  c #1B1818",
"+  c #1D1919",
"@  c #201B1B",
"#  c #201B1C",
"$  c #261F1E",
"%  c #573B48",
"&  c #61404F",
"*  c #6B4657",
"=  c #654B54",
"-  c #6A4C53",
";  c #6B4855",
":  c #6C4E57",
">  c #6E485A",
",  c #6E4C59",
"<  c #704A5B",
"1  c #724E5A",
"2  c #724A5D",
"3  c #714E5F",
"4  c #774F5F",
"5  c #6F505D",
"6  c #72515F",
"7  c #75535F",
"8  c #75565E",
"9  c #76585F",
"0  c #785C5F",
"q  c #724E60",
"w  c #764D60",
"e  c #784E60",
"r  c #765160",
"t  c #795060",
"y  c #795E60",
"u  c #8D615D",
"i  c #90625D",
"p  c #93655D",
"a  c #95675F",
"s  c #A6755A",
"d  c #A87759",
"f  c #AB7A5A",
"g  c #AA7E5C",
"h  c #AD7D5C",
"j  c #AC7F5C",
"k  c #7D9E58",
"l  c #7BA359",
"z  c #7DA159",
"x  c #AD805D",
"c  c #A9865F",
"v  c #8DAE5D",
"b  c #90AD5D",
"n  c #8CB05D",
"m  c #AF8060",
"M  c #B38762",
"N  c #B78A63",
"B  c #B08B64",
"V  c #B18C65",
"C  c #B89167",
"Z  c #BB916A",
"A  c #BD936B",
"S  c #BF956B",
"D  c #9FB260",
"F  c #A3B462",
"G  c #A4B562",
"H  c #A5B862",
"J  c #A3BE62",
"K  c #A5BC62",
"L  c #A8B963",
"P  c #A8BA64",
"I  c #AABC65",
"U  c #ACBD65",
"Y  c #C1976B",
"T  c #C1976C",
"R  c #C3996B",
"E  c #C49A6C",
"W  c #A3C163",
"Q  c #A5C363",
"!  c #A5C364",
"~  c #B1C368",
"^  c #B4C369",
"/  c #B2C569",
"(  c #B4C66A",
")  c #B0C969",
"_  c #B5C86B",
"`  c #B4CC6B",
"'  c #B7CB6C",
"]  c #B7CE6C",
"[  c #B8CB6B",
"{  c #B8CB6C",
"}  c #BACD6D",
"|  c #BECD6E",
" . c #BCD16E",
".. c #BFD36F",
"X. c #BFD370",
"o. c #C0D470",
"O. c #D5B186",
"+. c #D9B587",
"@. c #D9B588",
"#. c #DBB889",
"$. c #DCB98A",
"%. c #DDBB8C",
"&. c #E6CCA4",
"*. c #E8D0A7",
"=. c #E9D1A8",
"-. c #F1E1BD",
";. c #F2E3C0",
/* pixels */
"W W n n l l ........W W n n l l o.o.....J J v v k k h h h h h h h h h h g g l l v v Q Q o.o.....l l n n ! ! ........l l n n J J ",
"W W n n l l ........W W n n l l o.o.....J J v v k k h h h h h h h h h h g g l l v v Q Q o.o.....l l n n ! ! ........l l n n J J ",
"W W n n l l ! ! Q Q W W n n z z ....| | h h h h m m *.*.*.*.*.*.*.*.*.*.&.&.h h h h x x ....| | k l n n Q Q ! ! W W l l n n J J ",
"W W n n l l ! ! Q Q W W n n z z ....| | h h h h m m *.*.*.*.*.*.*.*.*.*.&.&.h h h h h x ....| | k l n n Q Q ! ! W W l l n n J J ",
"W W n n l l o.o.| | J J b b h h h h m m *.*.*.*.=.=.;.;.;.;.;.;.;.;.;.;.-.-.*.*.*.*.&.&.h h h h g g v v Q Q ........l l n n J J ",
"W W n n l l o.o.| | J J b b h h h h h h *.*.*.*.=.=.;.;.;.;.;.;.;.;.;.;.-.-.*.*.*.*.&.&.h h h h g g v v Q Q ........l l n n J J ",
"W W v v z z | | h h h h m m *.*.*.*.=.=.;.;.;.;.-.-.$.$.$.$.$.$.$.$.$.$.%.%.;.;.;.;.-.-.*.*.*.*.&.&.h h h h x x | | l l n n J J ",
"W W v v z z | | h h h h m m *.*.*.*.=.=.;.;.;.;.-.-.$.$.$.$.$.$.$.$.$.$.%.%.;.;.;.;.-.-.*.*.*.*.&.&.h h h h x x | | l l n n J J ",
"K K h h h h m m *.*.*.*.=.=.;.;.;.;.-.-.$.$.$.$.$.$.@.@.@.@.@.@.@.@.@.@.@.@.$.$.$.$.%.%.;.;.;.;.-.-.*.*.*.*.&.&.h h h h h h J J ",
"K K h h h h m m *.*.*.*.=.=.;.;.;.;.-.-.$.$.$.$.$.$.@.@.@.@.@.@.@.@.@.@.@.@.$.$.$.$.%.%.;.;.;.;.-.-.*.*.*.*.&.&.h h h h h h J J ",
"m m *.*.*.*.=.=.;.;.;.;.-.-.$.$.$.$.$.$.@.@.@.@.O.O.i i i i i i i i i i p p @.@.@.@.@.@.$.$.$.$.%.%.;.;.;.;.-.-.*.*.*.*.&.&.h h ",
"m m *.*.*.*.=.=.;.;.;.;.-.-.$.$.$.$.$.$.@.@.@.@.O.O.i i i i i i i i i i p p @.@.@.@.@.@.$.$.$.$.%.%.;.;.;.;.-.-.*.*.*.*.&.&.h h ",
"=.=.;.;.;.;.-.-.$.$.$.$.$.$.@.@.@.@.O.O.i i i i i i i i i i i i i i i i i i i i i i p p @.@.@.@.@.@.$.$.$.$.%.%.;.;.;.;.-.-.*.*.",
"=.=.;.;.;.;.-.-.$.$.$.$.$.$.@.@.@.@.O.O.i i i i i i i i i i i i i i i i i i i i i i p p @.@.@.@.@.@.$.$.$.$.%.%.;.;.;.;.-.-.*.*.",
"-.-.$.$.$.$.$.$.@.@.@.@.O.O.i i i i i i i i i i i i i i i i i i i i i i i i i i i i i i i i i i p p @.@.@.@.@.@.$.$.$.$.%.%.;.;.",
"-.-.$.$.$.$.$.$.@.@.@.@.O.O.i i i i i i i i i i i i i i i i i i i i i i i i i i i i i i i i i i p p @.@.@.@.@.@.$.$.$.$.%.%.;.;.",
"$.$.@.@.@.@.O.O.i i i i i i i i i i i i i i i i i i i i i i i i i i i i i i i i i i i i i i i i i i i i i i a a @.@.@.@.@.@.$.$.",
"$.$.@.@.@.@.O.O.i i i i i i i i i i i i i i i i i i i i i i i i i i i i i i i i i i i i i i i i i i i i i i a a @.@.@.@.@.@.$.$.",
"O.O.p p p p p p f f f f f f f f f f f f f f f f f f f f f f f f f f f f f f f f f f f f f f f f f f f f f f f f p p p p a a @.@.",
"O.O.p p p p p p f f f f f f f f f f f f f f f f f f f f f f f f f f f f f f f f f f f f f f f f f f f f f f f f p p p p a a @.@.",
"i i N N E E E E E E E E E E E E E E E E E E E E E E E E E E E E E E E E E E E E E E E E E E E E E E E E E E E E E E E E N N u u ",
"i i N N E E E E E E E E E E E E E E E E E E E E E E E E E E E E E E E E E E E E E E E E E E E E E E E E E E E E E E E E N N u u ",
"t t R R R R R R R R R R R R R R R R R R R R R R R R R R R R R R R R R R R R R R R R R R R R R R R R R R R R R R R R R R S S = = ",
"t t R R R R R R R R R R R R R R R R R R R R R R R R R R R R R R R R R R R R R R R R R R R R R R R R R R R R R R R R R R S S = = ",
"e e f f f f f f f f f f f f f f f f f f f f f f f f f f f f f f f f f f f f f f f f f f f f f f f f f f f f f f f f f f f f , , ",
"e e f f f f f f f f f f f f f f f f f f f f f f f f f f f f f f f f f f f f f f f f f f f f f f f f f f f f f f f f f f f f , , ",
"t t E E E E E E E E E E E E E E E E E E E E E E E E E E E E E E E E E E E E E E E E E E E E E E E E E E E E E E E E E E Y Y , , ",
"t t E E E E E E E E E E E E E E E E E E E E E E E E E E E E E E E E E E E E E E E E E E E E E E E E E E E E E E E E E E Y Y , , ",
"t t E E E E E E Y Y Y Y T T E E E E E E E E E E E E E E E E E E E E E E E E E E E E E E E E E E E E Y Y Y Y T T E E E E Y Y , , ",
"t t E E E E E E Y Y Y Y T T E E E E E E E E E E E E E E E E E E E E E E E E E E E E E E E E E E E E Y Y Y Y T T E E E E Y Y , , ",
"t t R R R R A A w w w w t t Y Y R R R R R R R R R R Y Y Y Y Y Y Y Y Y Y Y Y R R R R R R R R R R Z Z > > & & ; ; Y Y R R S S , , ",
"t t R R R R A A w w w w t t Y Y R R R R R R R R R R Y Y Y Y Y Y Y Y Y Y Y Y R R R R R R R R R R Z Z > > & & ; ; Y Y R R S S , , ",
"e e f f f f * * . . . . X X e e f f f f f f f f s s w w w w w w 4 4 2 2 4 4 d d f f f f f f f f * * o o X X o o 4 4 f f f f , , ",
"e e f f f f * * . . . . X X e e f f f f f f f f s s w w w w w w 4 4 2 2 4 4 d d f f f f f f f f * * o o X X o o 4 4 f f f f , , ",
"t t E E Y Y % % X X . . O O 4 4 E E E E E E A A < < X X X X X X . . . . X X > > T T E E E E Y Y w w o o . . . . 4 4 E E Y Y , , ",
"t t E E Y Y % % X X . . O O 4 4 E E E E E E A A < < X X X X X X . . . . X X > > T T E E E E Y Y w w o o . . . . 4 4 E E Y Y , , ",
"t t E E Y Y * * + + O O $ $ 4 4 E E E E Y Y * * . . . . . . . . . . . . X X + + t t E E E E S Y w w @ @ . . . . t t E E Y Y , , ",
"t t E E Y Y * * + + O O $ $ 4 4 E E E E Y Y * * . . . . . . . . . . . . X X + + t t E E E E Y Y w w @ @ . . . . t t E E Y Y , , ",
"t t R R S S t t C C c c V V t t R R R R S S > > . . . . . . . . . . . . . . + + t t R R R R S S t t E E S S B B t t R R S S , , ",
"t t R R S S t t C C c c V V t t R R R R S S > > . . . . . . . . . . . . . . + + t t R R R R S S t t E E S S B B t t R R S S , , ",
"e e f f f f h h #.#.#.#.+.+.f f f f f f f f 4 4 o o . . . . . . o o . . X X . . e e f f f f f f h h #.#.#.#.+.+.f f f f f f , , ",
"e e f f f f h h #.#.#.#.+.+.f f f f f f f f 4 4 o o . . . . . . o o . . X X . . e e f f f f f f h h #.#.#.#.+.+.f f f f f f , , ",
"t t E E E E E E E E E E E E E E E E E E Y Y w w . . . . . . . . . . X X . .     t t E E E E E E E E E E E E E E E E E E Y Y , , ",
"t t E E E E E E E E E E E E E E E E E E Y Y w w . . . . . . . . . . X X . .     t t E E E E E E E E E E E E E E E E E E Y Y , , ",
"t t E E E E E E E E E E E E E E E E E E Y Y w w . . . . . . . . . . . . X X X X > > E E E E E E E E E E E E E E E E E E Y Y , , ",
"t t E E E E E E E E E E E E E E E E E E Y Y w w . . . . . . . . . . . . X X X X > > E E E E E E E E E E E E E E E E E E Y Y , , ",
"1 1 Y Y Y Y Y Y Y Y Y Y Y Y Y Y Y Y Y Y A A w w $ $ # # X X # # X X X X + + + + * * Y Y Y Y Y Y Y Y Y Y Y Y Y Y Y Y Y Y A A - - ",
"1 1 Y Y Y Y Y Y Y Y Y Y Y Y Y Y Y Y Y Y A A w w $ $ # # X X # # X X X X + + + + * * Y Y Y Y Y Y Y Y Y Y Y Y Y Y Y Y Y Y A A - - ",
"[ [ 3 3 q q w w e e e e w w 3 3 3 3 3 3 3 3 3 3 7 7 y y 0 0 7 7 8 8 9 9 6 6 7 7 3 3 3 3 3 3 3 3 q q w w e e e e w w 3 3 : : o.o.",
"[ [ 3 3 q q w w e e e e w w 3 3 3 3 3 3 3 3 3 3 7 7 y y 0 0 7 7 8 8 9 9 6 6 7 7 3 3 3 3 3 3 3 3 q q w w e e e e w w 3 3 : : o.o.",
"X.X.I I F F e e N N M M 3 3 I I U U U U U U G G H H H H L H H H H H H H L L P P P P I I I I I I F F e e N N M M 3 3 I I I I o.o.",
"X.X.I I F F e e N N M M 3 3 I I U U U U U U G G H H H H H H H H H H H H L L P P P P I I I I I I F F e e N N M M 3 3 I I I I o.o.",
"o.o.I I F F t t E E Y Y 3 3 I I I I I I I I P P L L P P I I I I I I _ _ } } _ _ I I I I I I I I F F t t E E Y Y 3 6 I I U U o.o.",
"o.o.I I F F t t E E Y Y 3 3 I I I I I I I I P P L L P P I I I I I I _ _ } } _ _ I I I I I I I I F F t t E E Y Y 3 3 I I U U o.o.",
"` ` H H G G t t E E Y Y 3 3 I I I I I I ~ ~ ' ' } } _ _ U U U U U U _ _ / / _ _ / / I I I I I I F F t t E E Y Y 3 3 I I H H ` ` ",
"` ` H H G G t t E E Y Y 3 3 I I I I I I ~ ~ ' ' } } _ _ U U U U U U _ _ / / _ _ / / I I I I I I F F t t E E Y Y 3 3 U I H H ` ` ",
") ) H H G G t t E E Y Y 3 3 I I I I ~ ~ } } / / ( ( U U U U U U I I U U I I _ _ / / _ _ _ _ I I F F t t E E Y Y 3 3 I I H H ) ) ",
") ) H H G G t t E E Y Y 3 3 I I I I ~ ~ } } / / ( ( U U U U U U I I U U I I _ _ / / _ _ _ _ I I F F t t E E Y Y 3 3 I I H H ) ) ",
"o.o.U U F F t t E E Y Y 3 3 I I I I / / } } ' ' _ _ _ _ _ _ ........X.X.X.X.....U U _ _ ( ( I I F F t t E E Y Y 3 3 I I U U o.o.",
"o.o.U U F F t t E E Y Y 3 3 I I I I / / } } ' ' _ _ _ _ _ _ ........X.X.X.X.....U U _ _ ( ( I I F F t t E E Y Y 3 3 I I U U o.o.",
"o.o.o.o.G G r r Y Y A A 5 5 I I I I I I U U I I ~ ~ ^ ^ ( ( ' ' } } { { { { / / I I I I I I I I G G r r Y Y A A 5 5 U U o.o.o.o.",
"o.o.o.o.G G r r Y Y A A 5 5 I I I I I I U U I I ~ ~ ^ ( ( ( ' ' } } { { { { / / I I I I I I I I G G r r Y Y A A 5 5 U U o.o.o.o.",
"o.o.....] ] D D , , , , U U U U U U U U U U G G P P P P I I I I I I I I I I P P I I U U U U U U U U G G , 1 , , U U o.o.o.o.o.o.",
"o.o.....] ] D D , , , , U U U U U U U U U U G G P P P P I I I I I I I I I I P P I I U U U U U U U U G G 1 1 , , U U o.o.o.o.o.o."
};
