/* XPM */
static char *f8c7f9953ff244d6af0b721d062075fdCB9CEgtEdtEkPhdi[] = {
/* columns rows colors chars-per-pixel */
"64 64 145 2 ",
"   c #362F28",
".  c #3B2E2B",
"X  c #3D332B",
"o  c #45372B",
"O  c #4B3E2F",
"+  c #3F6429",
"@  c #377423",
"#  c #4D4C2F",
"$  c #43522A",
"%  c #4E4232",
"&  c #564A3C",
"*  c #5A4C3B",
"=  c #505033",
"-  c #6C4E4A",
";  c #635143",
":  c #72514B",
">  c #644C53",
",  c #6A4E54",
"<  c #6E4D59",
"1  c #724F5F",
"2  c #6B5355",
"3  c #665C51",
"4  c #6E535D",
"5  c #6C5B59",
"6  c #73525E",
"7  c #78515F",
"8  c #715A5A",
"9  c #597845",
"0  c #5F6A50",
"q  c #616E4F",
"w  c #796A4E",
"e  c #76784F",
"r  c #646354",
"t  c #6E6158",
"y  c #7C7C50",
"u  c #765160",
"i  c #795061",
"p  c #806E55",
"a  c #8B625D",
"s  c #91635D",
"d  c #A57E57",
"f  c #A77D58",
"g  c #AC7C5B",
"h  c #3CA830",
"j  c #4C8D3E",
"k  c #508E3E",
"l  c #429D35",
"z  c #47943A",
"x  c #4A923B",
"c  c #5CB730",
"v  c #6DAA3A",
"b  c #78A13F",
"n  c #07F705",
"m  c #0AF506",
"M  c #02FD01",
"N  c #56D330",
"B  c #69C73B",
"V  c #71C63E",
"C  c #4F8B40",
"Z  c #548543",
"A  c #518A40",
"S  c #7C9C42",
"D  c #7D9E58",
"F  c #7FA043",
"G  c #7EBB47",
"H  c #7BA258",
"J  c #78C342",
"K  c #8E8E4C",
"L  c #908F4C",
"P  c #869647",
"I  c #829A45",
"U  c #859049",
"Y  c #8E914B",
"T  c #9C8552",
"R  c #9A8851",
"E  c #949C53",
"W  c #A38155",
"Q  c #AD805D",
"!  c #81AA48",
"~  c #85B54B",
"^  c #8CB44E",
"/  c #83BA48",
"(  c #90B54F",
")  c #8EAF5D",
"_  c #95AD53",
"`  c #9CAE56",
"'  c #96AA5B",
"]  c #9EAD5A",
"[  c #8EB653",
"{  c #8DB15D",
"}  c #92B251",
"|  c #99B055",
" . c #9BB85D",
".. c #A4A55C",
"X. c #ACA65F",
"o. c #A4AA5A",
"O. c #A9A85D",
"+. c #AF8060",
"@. c #B48A61",
"#. c #B49E64",
"$. c #BA9D67",
"%. c #BC946A",
"&. c #BE9B68",
"*. c #9FB260",
"=. c #AEA460",
"-. c #B4A263",
";. c #B8A065",
":. c #A3B562",
">. c #A4BD62",
",. c #AABD65",
"<. c #C0966B",
"1. c #C29A6B",
"2. c #C19C6A",
"3. c #C39A6C",
"4. c #9CC25D",
"5. c #98CD5F",
"6. c #A1C05F",
"7. c #9DCC62",
"8. c #A3C163",
"9. c #A5C364",
"0. c #B4CB6A",
"q. c #BDCE6E",
"w. c #BED26F",
"e. c #BFD470",
"r. c #C0D470",
"t. c #D5B186",
"y. c #D9B588",
"u. c #DCB98A",
"i. c #DDBB8C",
"p. c #B9DFA5",
"a. c #D6DDBD",
"s. c #E6CCA4",
"d. c #E8D0A7",
"f. c #E9D1A8",
"g. c #D3E3BB",
"h. c #F1E1BD",
"j. c #DDD6C2",
"k. c #DBDCC2",
"l. c #E4DBC4",
"z. c #E3D7C9",
"x. c #E5DACA",
"c. c #E8DACE",
"v. c #EBDED1",
"b. c #E6E1CD",
"n. c #F2E3C0",
/* pixels */
"8.8.{ { H H w.w.w.w.8.8.{ { H H r.r.w.w.>.>.) ) D D g g g g g g g g g g g g H H { ) 8.8.r.r.w.w.H H { { 9.9.w.w.w.w.H H { { >.>.",
"8.8.{ { H H w.w.w.w.8.8.{ { H H r.r.w.w.>.>.) ) D D g g g g g g g g g g g g H H ) ) 8.8.r.r.w.w.H H { { 9.9.w.w.w.w.H H { { >.>.",
"8.8.{ { H H 9.9.8.8.8.8.{ { H H w.w.q.q.g g g g +.+.d.d.d.d.d.d.d.d.d.d.s.s.g g g g Q Q w.w.q.q.H H { { 8.8.9.9.8.8.H H { { >.>.",
"8.8.{ { H H 9.9.8.8.8.8.{ { H H w.w.q.q.g g g g +.+.d.d.d.d.d.d.d.d.d.d.s.s.g g g g Q Q w.w.q.q.H H { { 8.8.9.9.8.8.H H { { >.>.",
"8.8.{ { H H r.r.q.q.>.>.) ) g g g g +.+.d.d.d.d.f.f.n.n.n.n.n.n.n.n.n.n.h.h.d.d.d.d.s.s.g g g g g g ) ) 8.8.w.w.w.w.H H { { >.>.",
"8.8.{ { H H r.r.q.q.>.>.) ) g g g g +.+.d.d.d.d.f.f.n.n.n.n.n.n.n.n.n.n.h.h.d.d.d.d.s.s.g g g g g g ) ) 8.8.w.w.w.w.H H { { 8.>.",
"8.8.) ) H H q.q.g g g g +.+.d.d.d.d.f.f.n.n.n.n.h.h.u.u.u.u.u.u.u.u.u.u.i.i.n.n.n.n.h.h.d.d.f.d.s.s.g g g g Q Q q.q.H H { { >.>.",
"8.8.) ) H H q.q.g g g g +.+.d.d.d.d.f.f.n.n.n.n.h.h.u.u.u.u.u.u.u.u.u.u.i.i.n.n.n.n.h.h.d.d.d.d.s.s.g g g g Q Q q.0.H H { { >.>.",
">.>.g g g g +.+.d.d.d.d.f.f.n.n.n.n.h.h.u.u.u.u.u.u.y.y.y.y.y.y.y.y.y.y.y.y.u.u.u.u.i.i.n.n.n.n.h.h.d.d.d.d.s.s.g g g g g g >.>.",
">.>.g g g g +.+.d.d.d.d.f.f.n.n.n.n.h.h.u.u.u.u.u.u.y.y.y.y.y.y.y.y.y.y.y.y.u.u.u.u.i.i.n.n.n.n.h.h.d.d.d.d.s.s.g g g g g g >.>.",
"+.+.d.d.d.d.f.f.n.n.n.n.h.h.u.u.u.u.u.u.y.y.y.y.t.t.s s s s s s s s s s s s y.y.y.y.y.y.u.u.u.u.i.i.n.n.n.n.h.h.d.d.d.d.s.s.g g ",
"+.+.d.d.d.d.f.f.n.n.n.n.h.h.u.u.u.u.u.u.y.y.y.y.t.t.s s s s s s s s s s s s y.y.y.y.y.y.u.u.u.u.i.i.n.n.n.n.h.h.d.d.d.d.s.s.g g ",
"f.f.n.n.n.n.h.h.u.u.u.u.u.u.y.y.y.y.t.t.s s s s s s s s s s s s s s s s s s s s s s s s y.y.y.y.y.y.u.u.u.u.i.i.n.n.n.n.h.h.d.d.",
"f.f.n.n.n.n.h.h.u.u.u.u.u.u.y.y.y.y.t.t.s s s s s s s s s s s s s s s s s s s s s s s s y.y.y.y.y.y.u.u.u.u.i.i.n.n.n.n.h.h.d.d.",
"h.h.u.u.u.u.u.u.y.y.y.y.t.t.s s s s s s s s s s s s s s s s s s s s s s s s s s s s s s s s s s s s y.y.y.y.y.y.u.u.u.u.i.i.n.n.",
"h.h.u.u.u.u.u.u.y.y.y.y.t.t.s s s s s s s s s s s s s s s s s s s s s s s s s s s s s s s s s s s s y.y.y.y.y.y.u.u.u.u.i.i.n.n.",
"u.u.y.y.y.y.t.t.s s s s s s s s s s s s s s s s s s s s s s s s s s s s s s s s s s s s s s s s s s s s s s s s y.y.y.y.y.y.u.u.",
"u.u.y.y.y.y.t.t.s s s s s s s s s s s s s s s s s s s s s s s s s s s s s s s s s s s s s s s s s s s s s s s s y.y.y.y.y.y.u.u.",
"t.t.s s s s s s g g g g g g g g g g g g g g g g g g g g g g g g g g g g g g g g g g g g g g g g g g g g g g g g s s s s s s y.y.",
"t.t.s s s s s s g g g g g g g g g g g g g g g g g g g g g g g g g g g g g g g g g g g g g g g g g g g g g g g g s s s s s s y.y.",
"s s @.@.1.1.2.2.2.2.&.&.2.2.2.2.1.1.1.1.1.1.3.3.3.3.3.3.3.3.3.3.1.1.3.3.3.3.3.3.3.3.1.1.1.1.1.1.2.2.&.&.&.&.2.2.2.2.1.1.@.@.a a ",
"s s @.@.1.1.2.2.2.2.&.&.2.2.2.2.1.1.1.1.1.1.3.3.3.3.3.3.3.3.3.3.1.1.3.3.3.3.3.3.3.3.1.1.1.1.1.1.2.2.&.&.&.&.2.2.2.2.1.1.@.@.a a ",
"7 7 1.1.&.&.$.$.$.$.$.$.$.$.$.$.&.&.&.&.1.1.1.1.1.1.1.1.1.1.&.&.&.&.&.&.1.1.1.1.1.1.1.1.&.&.&.&.$.$.$.$.$.$.$.$.$.$.&.&.%.%.> > ",
"7 7 1.1.&.&.$.$.$.$.$.$.$.$.$.$.&.&.&.&.1.1.1.1.1.1.1.1.1.1.&.&.&.&.&.&.1.1.1.1.1.1.1.1.&.&.&.&.$.$.$.$.$.$.$.$.$.$.&.&.%.%.> > ",
"7 7 d d W W T T T T R R T T T T W W W W d d f f f f d d d d W W W W W W d d d d d d d d W W T T T T R R R R R R T T W W d d 2 2 ",
"7 7 d d W W T T T T R R T T T T W W W W d d f f f f d d d d W W W W W W d d d d d d d d W W T T T T R R R R R R T T W W d d 2 2 ",
"6 6 ;.;.-.-.X.X.o.o.o.o.o.o.O.O.=.=.;.;.;.;.;.;.;.;.;.;.-.-.-.-.-.-.-.-.;.;.;.;.;.;.;.;.-.-.X.X.O.O.o.o.o.o.o.o.O.O.-.-.#.#.2 2 ",
"6 6 ;.;.-.-.X.X.o.o.o.o.o.o.O.O.=.=.;.;.;.;.;.;.;.;.;.;.-.-.-.-.-.-.-.-.;.;.;.;.;.;.;.;.-.-.X.X.O.O.o.o.o.o.o.o.O.O.-.-.#.#.2 2 ",
"8 8 -.-.O.O.` ` } } ^ ^ } } | | o.o.X.X.=.=.-.-.=.=.X.X.O.O.o.o.o.o.o.o.O.O.X.X.=.=.X.X.O.O.] o.} } ^ ^ ^ ^ } } ` ` O.O.=.=.2 2 ",
"8 8 -.-.O.O.` ` } } ^ ^ } } | | o.o.O.X.=.=.-.-.=.=.X.X.O.O.o.o.o.o.o.o.O.O.X.X.=.=.X.X.O.O.o.o.} } ^ ^ ^ ^ } } ` ` O.O.=.=.2 2 ",
"8 8 X.X.` ` ^ ^ j j j j j j ~ ~ } } ` ` o.o.o.o.o.o.` ` _ _ } } } } } } ` ` ` ` o.o.o.o.` ` } } ~ ~ j j j j A A ~ ^ ` ` ....3 3 ",
"8 8 X.X.` ` ^ ^ j j j j j j ~ ~ } } ` ` o.o.o.o.o.o.` ` _ _ } } } } } } ` ` ` ` o.o.o.o.` ` } } ~ ~ j j j j A A ~ ~ ` ` ....3 3 ",
"5 5 L L I I z z M M n n M M x x b b I I P P P P S S j j j j x x x x j j Z Z S S I P P P I I b b x x M M n n n n k A I I K K 3 3 ",
"5 5 L L I I z z M M n n M M x x b b I I P P P P S S j j j j x x x x j j Z Z S S P P P P I I b b x x M M n n n n A A I I K K 3 3 ",
"t t o.o.^ ^ j j n n M M M M l l / / ( ( } } ^ ^ Z Z n n M n M M n n n n n n j j ^ ^ } } ^ ^ G G l l n n M M M M j x } } o.o.3 3 ",
"t t o.o.^ ^ j j n n M M M M l l / / ( ( } } ^ ^ Z Z n n M M M M n n n n n n j j ^ ^ } } ^ ^ G G l l n n M M M M j x ( } o.o.3 3 ",
"t t o.o.} } j j n n n n M M h h / / ^ ^ ^ ^ Z Z n n M M M M M M M M M M M M M M A A ^ ^ ^ ^ / / l l m m M M n n C C } } ....3 3 ",
"t t o.o.} } j j n n n n M M h h / / ^ ^ ^ ^ Z Z n n M M M M M M M M M M M M M M A A ^ ^ ^ ^ / / l l m m M M n n C C } } ....3 3 ",
"5 5 o.o._ _ Z Z J J N N B B k k ~ ~ ~ ~ ~ ~ C C M M M M M M M M M M M M M M M M j j ^ ^ ^ ^ ~ ~ A A J J V V G G Z Z | ` ....3 3 ",
"5 5 o.o._ _ Z Z J J N N B B k k ~ ~ ~ ~ ~ ~ C C M M M M M M M M M M M M M M M M j j ^ ^ ^ ^ ~ ~ A A J J V V G G Z Z ` ` ....3 3 ",
"8 8 R R Y Y I I 7.7.5.5.5.5.S S I I I I S S j j M M M M M M M M M M M M M M M M x x S S I I I I F F 7.7.7.7.7.7.P P Y Y R R 2 2 ",
"8 8 R R Y Y I I 7.7.5.5.5.5.S S I I I I S S j j M M M M M M M M M M M M M M M M x x S S I I I I F F 7.7.7.7.7.7.P P Y Y R R 2 2 ",
"6 6 ;.;.=.=.o.o.` ` | | | | ` ` ` ` ` ` } } j j M M M M M M M M M M M M M M M M A A } | ` ` o.o.] ] ` ` ` ` ] ] O.O.=.=.#.#.2 2 ",
"6 6 ;.;.=.=.o.o.` ` | | | | ` ` ` ` ` ` } } j j M M M M M M M M M M M M M M M M A A } | ` ` o.o.] ] ` ` ` ` ] ] O.O.=.=.#.#.2 2 ",
"6 6 $.$.;.;.-.-.X.X.X.X.O.O.O.O.O.O.o.o._ _ C C M M M M M M M M M M M M M M M M x x ` ` O.O.X.X.X.X.X.X.X.X.=.=.-.-.;.;.$.$.2 2 ",
"6 6 $.$.;.;.-.-.X.X.X.X.O.O.X.O.O.O.o.o._ _ C C M M M M M M M M M M M M M M M M x x ` ` O.O.X.X.X.X.X.X.X.X.=.=.-.-.;.;.$.$.2 2 ",
"6 6 &.&.$.$.#.#.#.#.#.#.#.#.-.-.=.=.X.X.' ' 9 9 m m c c v v v v v v v v v v n n j j ....X.X.#.#.#.#.#.#.#.#.#.#.$.$.$.$.%.%., , ",
"6 6 &.&.$.$.#.#.#.#.#.#.#.#.-.-.=.=.X.X.' ' 9 9 m m c c v v v v v v v v v v n M j j ....X.X.#.#.#.#.#.#.#.#.#.#.$.#.$.$.%.%., , ",
"0.0.1 1 6 6 6 6 7 7 6 6 6 6 5 4 5 5 3 3 r r q q I I } } ! ! @ @ @ @ } } } } U U 0 0 r r 5 5 5 5 4 4 6 6 6 6 7 7 6 6 1 1 , , e.e.",
"0.0.1 1 6 6 6 6 7 7 6 6 6 6 5 5 5 5 3 3 r r q q I I } } ! ! @ @ @ @ } } } } U U 0 0 r r 5 5 5 5 4 4 6 6 6 6 7 7 6 6 1 1 , , e.e.",
"e.e.,.,.:.:.7 7 @.@.@.@.6 6 >.>.>.>.6.6.4.4.[ [ y y o.o.+ + p.p.p.p.9 9 E E e e 4.4.4.4.>.>.>.>.:.:.7 7 @.@.@.@.1 1 ,.,.,.,.r.r.",
"e.e.,.,.:.:.7 7 @.@.@.@.6 6 >.>.>.>.6.6.4.4.[ [ y y o.o.+ + p.p.p.p.9 9 E E e e 4.4.4.4.>.>.>.>.:.:.7 7 @.@.@.@.1 1 ,.,.,.,.r.r.",
"r.r.,.,.:.:.i i 3.3.%.%.6 6 ,.,.>.>.>.>.8.8. . .w w $ $ g.g.g.g.g.g.a.a.$ $ p p 4.4.>.>.>.>.>.>.:.:.i i 1.1.%.%.6 6 ,.,.,.,.r.r.",
"r.r.,.,.:.:.i i 3.3.%.%.6 6 ,.,.>.>.>.>.8.8. . .w w $ $ g.g.g.g.g.g.a.a.$ $ p p 4.4.>.>.>.>.>.>.:.:.i i 1.1.%.%.6 6 ,.,.,.,.r.r.",
"0.0.:.:.:.:.i i 3.3.%.%.6 6 ,.,.,.,.>.>.>.>. . .; ; = = k.k.k.k.a.a.k.k.# # ; ; >.>.>.>.,.,.,.,.:.:.i i 3.3.<.<.6 6 ,.,.:.:.0.0.",
"0.0.:.:.:.:.i i 3.3.%.%.6 6 ,.,.,.,.>.>.>.>. . .; ; = = k.k.k.k.a.a.k.k.# # ; ; >.>.>.>.,.,.,.,.:.:.i i 3.3.<.<.6 6 ,.,.:.:.0.0.",
"0.0.:.:.:.:.i i 3.3.<.<.1 1 ,.,.,.,.,.,.,.,.:.:.X X j.j.b.b.l.l.l.l.x.x.j.j.    ] ] ,.,.,.,.,.,.:.:.i i 3.3.<.<.1 1 ,.,.:.:.0.0.",
"0.0.:.:.:.:.i i 3.3.<.<.1 1 ,.,.,.,.,.,.,.,.:.:.X X j.j.b.b.l.l.l.l.x.x.j.j.    ] ] ,.,.,.,.,.,.:.:.i i 3.3.<.<.1 1 ,.,.:.:.0.0.",
"r.r.,.,.:.:.i i 3.3.<.<.1 1 ,.,.,.,.,.,.,.,.:.:.. . x.x.& & z.z.z.z.* * z.z.. . :.:.,.,.,.,.,.,.:.:.i i 3.3.<.<.1 1 ,.,.,.,.r.r.",
"r.r.,.,.:.:.i i 3.3.<.<.1 1 ,.,.,.,.,.,.,.,.:.:.. . x.x.& & z.z.z.z.* * z.z.. . :.:.,.,.,.,.,.,.:.:.i i 3.3.<.<.1 1 ,.,.,.,.r.r.",
"r.r.r.r.:.:.u u <.<.%.%.4 4 ,.,.,.,.,.,.,.,.:.:.: : * * O O v.v.x.x.% % & & - - ,.,.,.,.,.,.,.,.:.:.u u <.<.%.%.4 4 ,.,.r.r.r.r.",
"r.r.r.r.:.:.u u <.<.%.%.4 4 ,.,.,.,.,.,.,.,.:.:.: : * * O O v.v.x.x.% % & & - - ,.,.,.,.,.,.,.,.:.:.u u <.<.%.%.4 4 ,.,.r.r.r.r.",
"r.r.w.w.0.0.*.*.< < < < ,.,.,.,.,.,.,.,.,.,.:.:.s s 3.3.O O v.v.x.c.o o <.<.a a ,.,.,.,.,.,.,.,.,.,.:.:.1 1 < < ,.,.r.r.r.r.r.r.",
"r.r.w.w.0.0.*.*.< < < < ,.,.,.,.,.,.,.,.,.,.:.:.s s 3.3.O O v.v.c.c.o o <.<.a a ,.,.,.,.,.,.,.,.,.,.:.:.1 1 < < ,.,.r.r.r.r.r.r."
};
