/* XPM */
static char *_600c9919a774692f2780c115b8811c63GUHnoZbdVOhG1N4[] = {
/* columns rows colors chars-per-pixel */
"64 64 11 1 ",
"  c #AEC868",
". c #B2CB6A",
"X c #B3CC6A",
"o c #B4CD6B",
"O c #B7CE6C",
"+ c #B9CF6D",
"@ c #BBD16E",
"# c #BED36F",
"$ c #BFD370",
"% c #BFD470",
"& c #C2D571",
/* pixels */
"XX@@@@++##&&&&&&$$++@@++@@&&&&&&&&&&&&@@++@@@@@@@@@@++##&&&&%%@@",
"XX@@@@++##&&&&&&$$++@@++@@&&&&&&&&&&&&@@++@@@@@@@@@@++##&&&&%%@@",
"&&&&&&&&&&&&&&&&&&&&&&&&&&%&&&&&&&&&%&&&&&&&&&&&&&&&&&&&&&&&%&&&",
"&&&&&&&&&&&&&&&&&&&&&&&&&&&&&&&&&&&&&&&&&&&&&&&&&&&&&&&&&&&&&&&&",
"..OO&&&&&&oo..&&&&%%%%&&&&##  ##%%  @@&&&&%%%%&&&&&&&&&&&&%&&&&&",
"..OO&&&&&&oo..&&&&%%%%&&&&##  ##%%  @@&&&&&&%%&&&&&&&&&&&&%%&&&&",
"OO@@&&&&&&++++&&&&&&%&&&&&##oo%%&&oo##&&%&&&%%%&&&%&&&OO..&&&&%&",
"OO@@&&&&&&++++&&&&&&%%&&&&##oo%%&&oo##&&&&&&%%&&&&%%&&OO..&&&&%%",
"&&&&&&&&&&&&&&%%&&&&%%%%&&%&&&&&&&&&%%&&&&%%&&&&&%%%&&++oo&&%%%%",
"&&&&&%&&&&&&&&%%&&&&%%%%&&%%&&&&&&&&%%&&&&&%&&&&%%%%&&++oo&&%%%%",
"&&&&%%%%%%%%&&&&&%&&%%&%%%&%&&&&&&&&%%&&&&%%&&&&&&%%&&&&&&&&&&&&",
"&&&&%%%%%%%%&&&&%%&&&&&&%%%%&&&&&&&&%%&&&&%&&&&&&%%%&&&&&&&&&&&&",
"&&%&&&%%&&%%%%&&&&&&&&&&&&&&&%%%%%%&&&&&&&&&oo++&&%&&&&%&&&&&&&&",
"&&%%&&&&&&&&%%&&&&&&&&&&&&&&&%%%%%&&&&&&&&&&oo++&&%&&&&&&&&&&&&&",
"%%%%&&&&&&&&%%&&@@oo&&%%%%&&&&%%%%%&&&%%%%&&XXOO&&&&%%%&&&@@oo&&",
"%%%%&&&&&&&&%%&&@@oo&&%%%%&&&%%%%%%&&&%%%%&&XXOO&&&&%%%%&&@@oo&&",
"&&&&%%&&%%%%&&&&++..&&%&&&%%%%%&%%%%%%&&&%%%&&&&%%%%&&&&&&++..&&",
"&&&&%%%&%%%%&&&&++..&&%&&&%&%%&&%%%%&%&&&%%%&&&&%%%%&&&%&&++..&&",
"##&&%%&&%%&%&&%&&&&&%%%&&&%&&&&&&&&&&&&&&&%%%%&&%%&&&&%%&&&&&&%%",
"##&&%%&&&&&&&&%%&&&&%%%&&&%&&&&&&&&&&&&&&%%%&&&&&%&&&&%%&&&&&&%%",
"++&&&&&&&&&&%%%%&&%%%%&&&&&&&&%%&&&&&&&&&&%%%%&&&&&&&%%%&%%%%%%%",
"++&&&&&&&&&&%%%%&&%%&%&&&&&&&&%%&%&&&&&&&&%%%%&&&&&&%&%%%%%%&&%%",
"&&&&%%%%%%&&&&&&&&%%&&&&&&&&%%%%%%%%&&&&&&&&%&&&%&&&&&&&&&%&&&&&",
"&%%%%%%%%&&&&&&&&&%%&&&&%%&&&%%%%%%%%%&&&&&&%%&&%&&&&&&&&&%%&&&&",
"&&%%%%%%&&&%%%&&%%%&&&%%%%&&&&&&&&&&&&%&%%%&&&%%%%&&&&&&&&&&%%&&",
"&&%%%%&&&&&%%%&&%%%&&&&%%%&&&&&&&&&&&&%%%%%&&&&%%%&&&&&&&&&&%%&&",
"&&%&&&&&&&&&%%%&%%&&&&%%%%%&%%%%&&%%%%%%%%&&&&%%%%%&%%%%&&&&%%%&",
"&&&&&&&&&&&&%%&&%%&&&&%%%%&&%%%%&%%%%%%%%%&&&&%%%%&&%%%%&&&%%%%%",
"&&&&&&&&&&%%%%%%%&&&&&%%%%%%%&&&%%%%%%%%%&&&&&%%%%%%%&&&%%%%&&%%",
"&&&&&&&&&&%%&%%%&&&&&&%%%%%%%%&&&&%%&%%%&&&&&&%%%%%%%%&&%%%%&&&%",
"&&%&%%####&&&&%%&&&&&&&&%&%%&&&&&&&&&&%%&&&&&&&&%&%%&&&&%%&&&&%%",
"&&%%%%####&&&&%%&&&&&&&&&&&&&&&&&&&&&&%%&&&&&&&&&&&&&&&&&&&&&&%%",
"&%%%&&....&&&&&&&&&&&&&&&&&&&&&&%%%%%%%&&&%%%%%%&&&&%%&&&&&&&&&&",
"&%%%&&....&&&&%&&&&&%%&%&&&&&&&&%%%%%%%%&&&&%%%%&&&&%%&&&&&&&&&&",
"&&%%%%####&&&&%%&&%%%%%%%%&&&&&&&&%%%%&&&&&&&&%&&&&&%%%&%%&&&&&&",
"&%%%&&####&&%&&%&&&%%%%%%%&&&&&%&&&%%%&&&&&&&&&&&&&%%%%%%%%%&&&&",
"&&%%%%&&&&%%%%&&%%%%&&%%%%&&&&%%&&%%%%&&&&&&&&&&%%%%&&%%%%&&&&%&",
"&&%%%%&&&&%%%%&&%%%%&%%%%%&&&&%%&&%%%%&&&&&&&&&&%%%%&&&%%%&&&&%%",
"&&&&%&&&%%&%&&&&&&&&&&%%%&&&&%%%&&&%%&&&&&%&%%%%%%&&&&%%%&&&%%%%",
"&&&&%%&&&%&&&&%&&&&&&&%%%%&&&%%%&&&%&&&&&&%%%%%%&&&&&&%%&&&&%%%%",
"&&%%&&&&&&%%%%%%%%%&&&%%&&&%&&&&&&%%&&&&&&&&&&&&%%%&&&%%&&&&%%%%",
"&&&%&&&&&&&&%%%%%%%%&&&&&&&%%&&&&&&%&&&&%%%%&&&&%%&&&&%%&&&&%%%%",
"&&%%%%&&&&&&&&&&%%&&&&&&&&%%%%&&&&%%%%&&%%&&&&%%%%%&&&&&&&&&%%&&",
"&&%%%%&&&&&&&&&&%%&&&&&&&&%%%%&&&&%%%%&&%%&&&&&&%%%&&&&&%%&&&%&&",
"&&&&%%%&&&&&oo..&&&&&&&&&&&%%%&&&&&&%%%&&&..OO&&&&&&%%&&%%%%&&&&",
"&&%&%%&&&&&&oo..&&&&&&&&&&%%%%&&&&%%%%&&&&..OO&&&&&&%%&&%%%%&&&&",
"&&%&%%%&&&&&@@++&&%%&%&&&&%%%%%%%%%%%%%&&&OO@@&&&&%%%%&&&&%&&&%%",
"&&&&%%%&&&&&@@++&&%%%%&&&&%%%%%&%%%%%%%&&&OO@@&&&&&%%%&&&&&&&%%%",
"&%&&&&&&&&&&&&&&&&%%&&@@..$$&&&&%&&&%%%&&&&&&&&&&&%%%&&&%&&&&&%%",
"%%&%&&&&&&&&&&&&&&&&&&@@..$$&&&&&&&&%%&&&&&&&&&&&&%%&&&&%%&&&&%%",
"%&%%%%&&&&&%%%%%&&&&&&@@oo$$&&&&&&&&&&&&&&%%%%&&&%%%&&&&%%%%&&&%",
"%&%%%%&&&&&%%%%%&&&&&&@@oo$$&&&&&&&&&%&&&&%%%%&&&%%%&&&&%%%%&&&%",
"&&&&%%%%%%%%&&%%&&&&&&&&&&%%%%&&##..##&&%%%%&%%%%&&&%%%%&&&&&&&&",
"&&&&%%&%%%%%&&%%&&&&&&&&&&%%%%&&##..##&&%&%%&%%%%&&&%%%%&&&&&&&&",
"oo@@&&&&&%&&&&%%&&%&%%&&&&&&&&&&##..@@&&&&&&&&%%%%&&&&%%&&&&@@oo",
"oo@@&&&&&&&&&&%%&&%%%%&&&&&%&&&&##..@@&&&&&&&&%%%%&&&&&%&&&&@@oo",
"..++&&&%%%%%&&&%&%%%&%%&%%%%&&&%&&&&%%%%%&&&&&&%%%%&%%%&&&&&@@. ",
"..++&&&%%%&%&&%%%%%%&&%%%%&&&&&%&&&&%%%%&&&&&&&&%%&&%%%&&&&&@@..",
"&&&&&&&&&&&&&&&&&&%%&&&&&&&&&&&&&&&&%%&&&&&&&&&&&&&&&&%%%%&&&&&&",
"&&&&&&&&&&&&&&&%&&%%&&&%&&&&&&&&&&&&&&&&&&&&&&&&&&&&&&%&%&&&&&&&",
"&&&&&&&&&&&&&&%&&&%&&&&%&&&&&&&&&&&&&&&&%%&&&&%%&&%%%&&&%%&&&&%&",
"&&&&&&&&&&&&&&&%&&%%&&&&&&&&&&&&&&&&&&&&%%&&&&%%&&%%&&&&%%&&&&%%",
"&&##+++++O##&&&&&&&&&&&&&%++++++++++++&&&&&&&&&&&&&&&&&&&&&&&&&&",
"&&##+++++O##&&&&&&&&&&&&%%++++++++++++&&&&&&&&&&&&&&&&&&&&&&&&&&"
};
