/* XPM */
static char *result[] = {
/* columns rows colors chars-per-pixel */
"64 64 140 2 ",
"   c #696E40",
".  c #6A6C42",
"X  c #6C6D43",
"o  c #6C6E43",
"O  c #6D6E43",
"+  c #6F6F42",
"@  c #6C7142",
"#  c #6F7043",
"$  c #6F7143",
"%  c #6F7242",
"&  c #6E7343",
"*  c #6C7441",
"=  c #6D7542",
"-  c #6F7542",
";  c #6F7643",
":  c #707043",
">  c #707342",
",  c #707343",
"<  c #717543",
"1  c #727543",
"2  c #707444",
"3  c #707545",
"4  c #717545",
"5  c #727744",
"6  c #737744",
"7  c #757B45",
"8  c #777E46",
"9  c #7A5362",
"0  c #7B5464",
"q  c #865F56",
"w  c #875F56",
"e  c #92635F",
"r  c #865C61",
"t  c #A57C61",
"y  c #AC7674",
"u  c #AF7876",
"i  c #A8885F",
"p  c #A8895F",
"a  c #AC8E5F",
"s  c #9DB35D",
"d  c #9EB45E",
"f  c #B08F78",
"g  c #B08E7A",
"h  c #B5957D",
"j  c #A7B962",
"k  c #A6BD62",
"l  c #A8BA62",
"z  c #A9BB63",
"x  c #AABB63",
"c  c #AABC63",
"v  c #ABBC63",
"b  c #ABBD64",
"n  c #AABF64",
"m  c #ACBD64",
"M  c #C39A6C",
"N  c #C59C6C",
"B  c #D1BD68",
"V  c #A6C063",
"C  c #AAC366",
"Z  c #ACC165",
"A  c #ACC366",
"S  c #AEC266",
"D  c #AEC567",
"F  c #B3C769",
"G  c #B1C868",
"H  c #B0CA68",
"J  c #B0CA69",
"K  c #B1CA69",
"L  c #B2CB6A",
"P  c #B3CB6A",
"I  c #B5C869",
"U  c #B4C86A",
"Y  c #B6C96A",
"T  c #B4CA6A",
"R  c #B6CA6B",
"E  c #B7CA6B",
"W  c #B3CC6A",
"Q  c #B4CC6A",
"!  c #B4CD6B",
"~  c #B5CD6B",
"^  c #B6CD6B",
"/  c #B7CE6C",
"(  c #B8CA6B",
")  c #B8CB6C",
"_  c #B8CF6C",
"`  c #B8CF6D",
"'  c #B9CF6D",
"]  c #BACE6C",
"[  c #BBCE6C",
"{  c #BBCF6D",
"}  c #BCCF6D",
"|  c #B9D06D",
" . c #BAD06D",
".. c #BBD16E",
"X. c #BCD06D",
"o. c #BCD06E",
"O. c #BDD06E",
"+. c #BCD16E",
"@. c #BCD26E",
"#. c #BDD26E",
"$. c #BCD26F",
"%. c #BDD26F",
"&. c #BED36F",
"*. c #BFD370",
"=. c #D5C36D",
"-. c #C0D370",
";. c #C0D470",
":. c #C1D470",
">. c #C1D570",
",. c #C0D471",
"<. c #C1D571",
"1. c #C2D571",
"2. c #C3D671",
"3. c #B29B8B",
"4. c #B39E8F",
"5. c #BBA189",
"6. c #BEA58B",
"7. c #BBA895",
"8. c #C78589",
"9. c #D5B489",
"0. c #C4AE91",
"q. c #C4AE92",
"w. c #C5AE92",
"e. c #C7B294",
"r. c #DAC293",
"t. c #DEC999",
"y. c #E3D994",
"u. c #E5DC99",
"i. c #E5CCA3",
"p. c #E7CEA3",
"a. c #EBDCB0",
"s. c #EBDDB0",
"d. c #EDEABB",
"f. c #F1EEBC",
"g. c #F0EEBE",
"h. c #F2F0BE",
"j. c #F2F1BE",
"k. c #F2F0BF",
"l. c #F3F1BF",
"z. c #F3F2C0",
/* pixels */
"....;.;.1.1.1.1.#.#.' ' | | | | | | | | | | ' ' ....1.1.1.1.1.1.1.1.1.1.1.1.....' ' | | ' ' *.*.1.1.1.1.1.1.&.&.' ' | | ....W W ",
"....;.;.1.1.1.1.#.#.' ' | | | | | | | | | | ' ' ....1.1.1.1.1.1.1.1.1.1.1.1.....' ' | | ' ' *.*.1.1.1.1.1.1.&.&.' ' | | ....W W ",
"2.2.;.;.;.;.;.;.<.<.1.1.1.1.1.1.1.1.1.1.1.1.1.1.<.<.;.;.<.<.;.;.;.;.<.<.;.;.1.1.1.1.1.1.1.1.:.:.;.;.>.>.:.:.:.:.1.1.1.1.2.2.1.1.",
"2.2.;.;.;.;.;.;.<.<.1.1.1.1.1.1.1.1.1.1.1.1.1.1.<.<.;.;.<.<.;.;.;.;.<.<.;.;.1.1.1.1.1.1.1.1.:.:.;.;.>.>.:.:.:.:.1.1.1.1.2.2.1.1.",
";.;.;.;.;.;.<.<.>.>.;.;.;.;.;.;.;.;.;.;.{ { { { ) ) F F V V R R [ [ C C $.$.<.<.;.;.;.;.;.;.;.;.<.<.P P ! ! <.<.;.;.<.<._ _ P P ",
";.;.;.;.;.;.<.<.>.>.;.;.;.;.;.;.;.;.;.;.{ { { { ) ) F F V V R R [ [ C C $.$.<.<.;.;.;.;.;.;.;.;.<.<.P P ! ! <.<.;.;.<.<._ _ P P ",
";.;.;.;.<.<.L L / / <.<.;.;.;.;.;.;.;.;.{ { { { ( ( U U A A E E { { G G &.&.;.;.;.;.;.;.;.;.;.;.:.:._ _ ' ' :.:.;.;.:.:...../ / ",
";.;.;.;.<.<.L L / / <.<.;.;.;.;.;.;.;.;.{ { { { ( ( U U A A E E { { G G &.&.;.;.;.;.;.;.;.;.;.;.:.:._ _ ' ' :.:.;.;.:.:...../ / ",
";.;.;.;.<.<.^ ^ ' ' <.<.;.;.;.;.{ { { { 6 6 6 6 e e e e e e e e + + : : { { { { ;.;.;.;.;.;.;.;.;.;.<.<.<.<.;.;.;.;.;.;.>.>.1.1.",
";.;.;.;.<.<.^ ^ ' ' <.<.;.;.;.;.{ { { { 6 6 6 6 e e e e e e e e + + : : { { { { ;.;.;.;.;.;.;.;.;.;.<.<.<.<.;.;.;.;.;.;.>.>.1.1.",
";.;.;.;.;.;.1.1.>.>.;.;.;.;.;.;.X.X.O.O.6 6 6 6 e e e e e e e e + + + + { { { { ;.;.;.;.;.;.;.;.;.;.;.;.;.;.;.;.;.;.;.;.;.;.;.;.",
";.;.;.;.;.;.1.1.>.>.;.;.;.;.;.;.X.X.O.O.6 6 6 6 e e e e e e e e + + + + { { { { ;.;.;.;.;.;.;.;.;.;.;.;.;.;.;.;.;.;.;.;.;.;.;.;.",
";.;.1.1.>.>.;.;.;.;.;.;.{ { o.o.; ; = = y y y y 8.8.8.8.8.8.8.8.u u u u # # # # { { { { 1.1.>.>.;.;.;.;.;.;.;.;.;.;.;.;.;.;.;.;.",
";.;.1.1.>.>.;.;.;.;.;.;.{ { o.o.; ; = = y y y y 8.8.8.8.8.8.8.8.u u u u # # # # { { { { 1.1.>.>.;.;.;.;.;.;.;.;.;.;.;.;.;.;.;.;.",
":.:.~ ~  . .<.<.;.;.;.;.{ { o.o.- - * * y y y y 8.8.8.8.8.8.8.8.u u u u # # # # { { X.X.~ ~  . .<.<.;.;.;.;.;.;.;.;.;.;.;.;.;.;.",
":.:.~ ~  . .<.<.;.;.;.;.{ { o.o.- - * * y y y y 8.8.8.8.8.8.8.8.u u u u # # # # { { X.X.~ ~  . .<.<.;.;.;.;.;.;.;.;.;.;.;.;.;.;.",
":.:.K K ` ` <.<.{ { { { 5 5 5 5 5.5.5.5.g.g.g.g.z.z.z.z.g.g.g.g.d.d.d.d.q.q.q.q.# # $ $ D D T T <.<.;.;.;.;.;.;.;.;.;.;.;.;.:.:.",
":.:.K K ` ` <.<.{ { { { 5 5 5 5 5.5.5.5.g.g.g.g.z.z.z.z.g.g.g.g.d.d.d.d.q.q.q.q.# # $ $ D D T T <.<.;.;.;.;.;.;.;.;.;.;.;.;.:.:.",
";.;.<.<.:.:.;.;.{ { { { 5 5 5 5 5.5.5.5.g.g.g.g.z.z.z.z.g.g.g.g.d.d.d.d.q.q.q.q.# # # # o.o.} } ;.;.;.;.;.;.;.;.;.;.;.;.:.:.@.@.",
";.;.<.<.:.:.;.;.{ { { { 5 5 5 5 5.5.5.5.g.g.g.g.z.z.z.z.g.g.g.g.d.d.d.d.q.q.q.q.# # # # o.o.} } ;.;.;.;.;.;.;.;.;.;.;.;.:.:.@.@.",
";.;.;.;.;.;.;.;.7 7 7 7 r r r r 9 9 9 9 3.3.3.3.j.j.j.j.7.7.7.7.0 0 0 0 4.4.4.4.w.w.w.w.> > > > ;.;.;.;.;.;.;.;.;.;.;.;.1.1.' ' ",
";.;.;.;.;.;.;.;.7 7 7 7 r r r r 9 9 9 9 3.3.3.3.j.j.j.j.7.7.7.7.0 0 0 0 4.4.4.4.w.w.w.w.> > > > ;.;.;.;.;.;.;.;.;.;.;.;.1.1.' ' ",
";.;.;.;.;.;.;.;.7 7 7 7 r r r r 9 9 9 9 3.3.3.3.j.j.j.j.7.7.7.7.0 0 0 0 4.4.4.4.w.w.w.w.> > > > ;.;.;.;.;.;.;.;.;.;.;.;.;.;.;.;.",
";.;.;.;.;.;.;.;.7 7 7 7 r r r r 9 9 9 9 3.3.3.3.j.j.j.j.7.7.7.7.0 0 0 0 4.4.4.4.w.w.w.w.> > > > ;.;.;.;.;.;.;.;.;.;.;.;.;.;.;.;.",
";.;.;.;.;.;.;.;.7 7 7 7 6.6.6.6.u.u.u.u.=.=.=.=.y.y.y.y.z.z.z.z.z.z.z.z.z.z.z.z.e.e.e.e.# # # # { { { { ;.;.;.;.;.;.;.;.;.;.;.;.",
";.;.;.;.;.;.;.;.7 7 7 7 6.6.6.6.u.u.u.u.=.=.=.=.y.y.y.y.z.z.z.z.z.z.z.z.z.z.z.z.e.e.e.e.# # # # { { { { ;.;.;.;.;.;.;.;.;.;.;.;.",
";.;.;.;.;.;.;.;.7 7 7 7 6.6.6.6.u.u.u.u.=.=.=.=.y.y.y.y.z.z.z.z.z.z.z.z.z.z.z.z.e.e.e.e.# # # # { { { { ;.;.;.;.;.;.;.;.;.;.;.;.",
";.;.;.;.;.;.;.;.7 7 7 7 6.6.6.6.u.u.u.u.=.=.=.=.y.y.y.y.z.z.z.z.z.z.z.z.z.z.z.z.e.e.e.e.# # # # { { { { ;.;.;.;.;.;.;.;.;.;.;.;.",
";.;.;.;.;.;.;.;.7 7 7 7 6.6.6.6.z.z.z.z.z.z.z.z.z.z.z.z.z.z.z.z.z.z.z.z.z.z.z.z.z.z.z.z.e.e.e.e.# # # # { { } } :.:.;.;.;.;.;.;.",
";.;.;.;.;.;.;.;.7 7 7 7 6.6.6.6.z.z.z.z.z.z.z.z.z.z.z.z.z.z.z.z.z.z.z.z.z.z.z.z.z.z.z.z.e.e.e.e.# # # # { { } } :.:.;.;.;.;.;.;.",
";.;.;.;.;.;.;.;.7 7 7 7 6.6.6.6.z.z.z.z.z.z.z.z.z.z.z.z.z.z.z.z.z.z.z.z.z.z.z.z.z.z.z.z.e.e.e.e.# # # # { { ] ] &.&.;.;.;.;.;.;.",
";.;.;.;.;.;.;.;.7 7 7 7 6.6.6.6.z.z.z.z.z.z.z.z.z.z.z.z.z.z.z.z.z.z.z.z.z.z.z.z.z.z.z.z.e.e.e.e.# # # # { { ] ] &.&.;.;.;.;.;.;.",
"1.1.;.;.;.;.;.;.7 7 7 7 6.6.6.6.l.l.l.l.z.z.z.z.z.z.z.z.h.h.h.h.h.h.h.h.z.z.z.z.z.z.z.z.l.l.l.l.0.0.0.0., ,     H H 1.1.;.;.;.;.",
"1.1.;.;.;.;.;.;.7 7 7 7 6.6.6.6.l.l.l.l.z.z.z.z.z.z.z.z.h.h.h.h.h.h.h.h.z.z.z.z.z.z.z.z.l.l.l.l.0.0.0.0., ,     H H 1.1.;.;.;.;.",
";.;.;.;.;.;.;.;.7 7 7 7 6.6.6.6.l.l.l.l.z.z.z.z.z.z.z.z.h.h.h.h.h.h.h.h.z.z.z.z.z.z.z.z.l.l.l.l.0.0.0.0.> > % % %.%.;.;.;.;.;.;.",
";.;.;.;.;.;.;.;.7 7 7 7 6.6.6.6.l.l.l.l.z.z.z.z.z.z.z.z.h.h.h.h.h.h.h.h.z.z.z.z.z.z.z.z.l.l.l.l.0.0.0.0.> > % % %.%.;.;.;.;.;.;.",
";.;.;.;.;.;.;.;.8 8 8 8 f f f f a.a.a.a.k.k.k.k.k.k.k.k.t.t.t.t.r.r.r.r.f.f.f.f.f.f.f.f.s.s.s.s.h h h h 1 1 1 1 >.>.;.;.;.;.;.;.",
";.;.;.;.;.;.;.;.8 8 8 8 f f f f a.a.a.a.k.k.k.k.k.k.k.k.t.t.t.t.r.r.r.r.f.f.f.f.f.f.f.f.s.s.s.s.h h h h 1 1 1 1 >.>.;.;.;.;.;.;.",
";.;.;.;.;.;.;.;.8 8 8 8 f f f f a.a.a.a.k.k.k.k.k.k.k.k.t.t.t.t.r.r.r.r.f.f.f.f.f.f.f.f.s.s.s.s.h h h h 1 1 1 1 ;.;.;.;.;.;.;.;.",
";.;.;.;.;.;.;.;.8 8 8 8 f f f f a.a.a.a.k.k.k.k.k.k.k.k.t.t.t.t.r.r.r.r.f.f.f.f.f.f.f.f.s.s.s.s.h h h h 1 1 1 1 ;.;.;.;.;.;.;.;.",
";.;.;.;.;.;.;.;.;.;.;.;.8 8 8 8 g g g g i.i.i.i.p.p.p.p.i.i.i.i.9.9.9.9.N N N N M M M M t t t t < < < < ;.;.;.;.;.;.;.;.;.;.;.;.",
";.;.;.;.;.;.;.;.;.;.;.;.8 8 8 8 g g g g i.i.i.i.p.p.p.p.i.i.i.i.9.9.9.9.N N N N M M M M t t t t < < < < ;.;.;.;.;.;.;.;.;.;.;.;.",
";.;.;.;.;.;.;.;.;.;.;.;.8 8 8 8 g g g g i.i.i.i.p.p.p.p.i.i.i.i.9.9.9.9.N N N N M M M M t t t t < < < < ;.;.;.;.;.;.;.;.;.;.1.1.",
";.;.;.;.;.;.;.;.;.;.;.;.8 8 8 8 g g g g i.i.i.i.p.p.p.p.i.i.i.i.9.9.9.9.N N N N M M M M t t t t < < < < ;.;.;.;.;.;.;.;.;.;.1.1.",
";.;.;.;.;.;.;.;.*.*.*.*.I I I I 3 3 @ @ i i p p B B B B a a a a p p p p B B B B a a a a X X o o k k n n ,.,.*.*.;.;.;.;.;.;.:.:.",
";.;.;.;.;.;.;.;.*.*.*.*.I I I I 3 3 @ @ i i p p B B B B a a a a p p p p B B B B a a a a X X o o k k n n ,.,.*.*.;.;.;.;.;.;.:.:.",
";.;.;.;.;.;.;.;.*.*.*.*.I I I I 2 2 & & i i p p B B B B a a a a p p p p B B B B a a a a X X X X Z Z S S -.-.*.*.;.;.;.;.;.;.;.;.",
";.;.;.;.;.;.;.;.*.*.*.*.I I I I 2 2 & & i i p p B B B B a a a a p p p p B B B B a a a a X X X X Z Z S S -.-.*.*.;.;.;.;.;.;.;.;.",
";.;.;.;.;.;.;.;.Y Y Y Y c c c c x x c c 4 4 2 2 w w w w X X X X 2 2 2 2 w w q q . . o o x x x x m m b b I I I I ;.;.;.;.;.;.;.;.",
";.;.;.;.;.;.;.;.Y Y Y Y c c c c x x c c 4 4 2 2 w w w w X X X X 2 2 2 2 w w q q . . o o x x x x m m b b I I I I ;.;.;.;.;.;.;.;.",
";.;.;.;.;.;.;.;.Y Y Y Y c c c c x x x x 2 2 2 2 w w w w O O X X 2 2 2 2 w w q q . . o o x x x x c c c c I I I I ;.;.;.;.;.;.;.;.",
";.;.;.;.;.;.;.;.Y Y Y Y c c c c x x x x 2 2 2 2 w w w w O O X X 2 2 2 2 w w q q . . o o x x x x c c c c I I I I ;.;.;.;.;.;.;.;.",
"1.1.:.:.;.;.;.;.;.;.;.;.Y Y Y Y c c c c c c c c b b l l d d z z v v c c c c m m v v c c c c c c I I I I ;.;.;.;.;.;.;.;.>.>.1.1.",
"1.1.:.:.;.;.;.;.;.;.;.;.Y Y Y Y c c c c c c c c b b l l d d z z v v c c c c m m v v c c c c c c I I I I ;.;.;.;.;.;.;.;.>.>.1.1.",
"Q Q ....<.<.;.;.;.;.;.;.Y Y Y Y c c c c c c c c b b j j s s z z v v c c c c c c c c c c c c c c I I I I ;.;.;.;.;.;.<.<. . .~ ~ ",
"Q Q ....<.<.;.;.;.;.;.;.Y Y Y Y c c c c c c c c b b j j s s z z v v c c c c c c c c c c c c c c I I I I ;.;.;.;.;.;.<.<. . .~ ~ ",
"J J  . .<.<.;.;.;.;.;.;.;.;.;.;.;.;.;.;.;.;.;.;.;.;.;.;.1.1.;.;.;.;.;.;.;.;.;.;.;.;.;.;.;.;.;.;.;.;.;.;.;.;.;.;.;.;.<.<.' ' K K ",
"J J  . .<.<.;.;.;.;.;.;.;.;.;.;.;.;.;.;.;.;.;.;.;.;.;.;.1.1.;.;.;.;.;.;.;.;.;.;.;.;.;.;.;.;.;.;.;.;.;.;.;.;.;.;.;.;.<.<.' ' K K ",
"<.<.:.:.;.;.;.;.;.;.;.;.;.;.;.;.;.;.;.;.;.;.;.;.;.;.;.;.;.;.;.;.;.;.;.;.;.;.;.;.;.;.;.;.;.;.;.;.;.;.;.;.;.;.;.;.;.;.;.;.:.:.<.<.",
"<.<.:.:.;.;.;.;.;.;.;.;.;.;.;.;.;.;.;.;.;.;.;.;.;.;.;.;.;.;.;.;.;.;.;.;.;.;.;.;.;.;.;.;.;.;.;.;.;.;.;.;.;.;.;.;.;.;.;.;.:.:.<.<.",
";.;.;.;.;.;.;.;.;.;.;.;.;.;.;.;.;.;.;.;.;.;.;.;.;.;.1.1.1.1.1.1.1.1.1.1.1.1.;.;.;.;.;.;.;.;.;.;.;.;.;.;.>.>.1.1.1.1.1.1.<.<.;.;.",
";.;.;.;.;.;.;.;.;.;.;.;.;.;.;.;.;.;.;.;.;.;.;.;.;.;.1.1.1.1.1.1.1.1.1.1.1.1.;.;.;.;.;.;.;.;.;.;.;.;.;.;.>.>.1.1.1.1.1.1.<.<.;.;.",
"1.1.1.1.1.1.1.1.:.:.>.>.1.1.1.1.1.1.1.1.1.1.1.1.;.;.' ' ' ' ' ' ' ' ' ' ' ' ;.;.1.1.1.1.1.1.1.1.1.1.1.1.%.%._ _ ' ' _ _ +.+.2.2.",
"1.1.1.1.1.1.1.1.:.:.>.>.1.1.1.1.1.1.1.1.1.1.1.1.;.;.' ' ' ' ' ' ' ' ' ' ' ' ;.;.1.1.1.1.1.1.1.1.1.1.1.1.%.%._ _ ' ' _ _ +.+.2.2."
};
