/* XPM */
static char *b85b6d8a6cf24f4eba923da8abebd78aNhW5Bzc32bOYDlJm[] = {
/* columns rows colors chars-per-pixel */
"64 64 76 1 ",
"  c #696E40",
". c #6F6F42",
"X c #6F7043",
"o c #6F7542",
"O c #707043",
"+ c #717543",
"@ c #707444",
"# c #737744",
"$ c #757B45",
"% c #777E46",
"& c #7A5362",
"* c #7B5464",
"= c #875F56",
"- c #92635F",
"; c #865C61",
": c #A57C61",
"> c #AC7674",
", c #AF7876",
"< c #A8885F",
"1 c #A8895F",
"2 c #AC8E5F",
"3 c #9DB35D",
"4 c #B08F78",
"5 c #B08E7A",
"6 c #B5957D",
"7 c #A7B962",
"8 c #A6BD62",
"9 c #AABB63",
"0 c #AABC63",
"q c #AABF64",
"w c #ACBD64",
"e c #C39A6C",
"r c #C59C6C",
"t c #D1BD68",
"y c #A6C063",
"u c #AAC366",
"i c #ACC165",
"p c #AEC567",
"a c #B3C769",
"s c #B0CA69",
"d c #B2CB6A",
"f c #B5C869",
"g c #B4CA6A",
"h c #B3CC6A",
"j c #B4CD6B",
"k c #B7CE6C",
"l c #B8CA6B",
"z c #B8CB6C",
"x c #B9CF6D",
"c c #BCCF6D",
"v c #BBD16E",
"b c #BED36F",
"n c #BFD370",
"m c #D5C36D",
"M c #C0D370",
"N c #C2D571",
"B c #B29B8B",
"V c #B39E8F",
"C c #BBA189",
"Z c #BEA58B",
"A c #BBA895",
"S c #C78589",
"D c #D5B489",
"F c #C5AE92",
"G c #C7B294",
"H c #DAC293",
"J c #DEC999",
"K c #E3D994",
"L c #E5DC99",
"P c #E5CCA3",
"I c #E7CEA3",
"U c #EBDDB0",
"Y c #EDEABB",
"T c #F1EEBC",
"R c #F3F1BF",
"E c #F3F2C0",
/* pixels */
"hhvvvvxxbbNNNNNNnnxxvvxxvvNNNNNNNNNNNNvvxxvvvvvvvvvvxxbbNNNNnnvv",
"hhvvvvxxbbNNNNNNnnxxvvxxvvNNNNNNNNNNNNvvxxvvvvvvvvvvxxbbNNNNnnvv",
"NNNNNNNNNNNNNNNNNNNNNNNNNNnNNNNNNNNNNNNNNNNNNNNNNNNNNNNNNNNNnNNN",
"NNNNNNNNNNNNNNNNNNNNNNNNNNNNNNNNNNNNNNNNNNNNNNNNNNNNNNNNNNNNNNNN",
"ddkkNNNNNNjjddNNNNnnnnNNNNbbuuxxggyyaazzxxxxNNNNNNNNNNNNNNnNNNNN",
"ddkkNNNNNNjjddNNNNnnnnNNNNbbuuxxggyyaazzxxxxNNNNNNNNNNNNNNnnNNNN",
"kkvvNNNNNNxxxxNNNNNNnNNNMMbbddxxggiiggllxxxxNNNNNNnNNNkkddNNNNnN",
"kkvvNNNNNNxxxxNNNNNNnnNNNNbbddxxggiiggllxxxxNNNNNNnnNNkkddNNNNnn",
"NNNNNNNNNNNNNNnnnnnnNNNMxxxxOO..--------@@@@xxxxNnnnNNxxjjNNnnnn",
"NNNNNnNNNNNNNNnnnnnNNNNMxxxxOO..--------@@@@xxxxnnnnNNxxjjNNnnnn",
"NNNNnnnnnnnnNNNNnnNNNNNMxxxx....--------@@@@bbvvNNnnnnNNNNNNNNNN",
"NNNNnnnnnnnnNNNNnnNNNNNNxxxx....--------$@@@bbbbNnnnnNNNNNNNNNNN",
"NNnNNNnnNNnnnnNNNNNNxxxxXXXX,,,,SSSSSSSS>>>>oooobbxxMMNNNNNNNNNN",
"NNnnNNNNNNNNnnNNNNNNxxxxXXXX,,,,SSSSSSSS>>>>oooobbxxMMNNNNNNNNNN",
"nnnnNNNNNNNNnnNNvvjjbbxxXXXX,,,,SSSSSSSS>>>>oooobbxxMNNNNNvvjjNN",
"nnnnNNNNNNNNnnNNvvjjbbxxXXXX,,,,SSSSSSSS>>>>oooobbxxMNNNNNvvjjNN",
"NNNnnNNNnnNnNnNNggppXXXXFFFFYYYYTTTTEEEETTTTCCCC@@@@xxxxNNxxddNN",
"NNNnnNNNnNNnNnNNggppXXXXFFFFYYYYTTTTEEEETTTTCCCC@@@@xxxxNNxxddNN",
"bbNNnnNNnnNNNNnnccbbXXXXFFFFYYYYTTTTEEEETTTTCCCC@@@@xxxxNNNNNNnn",
"bbNNnnNNnnNNNNnnccbbXXXXFFFFYYYYTTTTEEEETTTTCCCC@@@@cxxxNNNNNNnn",
"xxNNnNNNnNNNNNNNOO++FFFFVVVV****AAAARRRRBBBB&&&&;;;;$$$$Nnnnnnnn",
"xxNNnnNNNNNNNNNNOO+OFFFFVVVV****AAAARRRRBBBB&&&&;;;;$$$$nnnnNNnn",
"NNNNnnnnNNNNNNNNOOOOFFFFVVVV****AAAARRRRBBBB&&&&;;;;$$$$NNnNNNNN",
"NnnNnnnnNNNNNNNNOOOOFFFFVVVV****AAAARRRRBBBB&&&&;;;;$$$$NNnnNNNN",
"NNnnnNNNNNNNxxxxXXXXGGGGEEEEEEEEEEEEKKKKmmmmLLLLZZZZ$$$$NNNNnnNN",
"NNnnNNNNNNNNxxxxXXXXGGGGEEEEEEEEEEEEKKKKmmmmLLLLZZZZ$$$$NNNNnnNN",
"NnnNNNNNNNNNxxxxXXXXGGGGEEEEEEEEEEEEKKKKmmmmLLLLZZZZ$$$$NNNNnnnN",
"NnnnNNNNNNNNxxxxXXXXGGGGEEEEEEEEEEEEKKKKmmmmLLLLZZZZ$$$$NNNnnnnn",
"nNNNnnNNccxxXXXXGGGGEEEEEEEEEEEEEEEEEEEEEEEEEEEEZZZZ$$$$nnnnNNnn",
"nNNNnnNNccxxXXXXGGGGEEEEEEEEEEEEEEEEEEEEEEEEEEEEZZZZ$$$$nnnnNNnn",
"nnNNNNbbxxxxXXXXGGGGEEEEEEEEEEEEEEEEEEEEEEEEEEEEZZZZ$$$$nnNNNNNn",
"nnNNNnbbxxxxXXXXGGGGEEEEEEEEEEEEEEEEEEEEEEEEEEEEZZZZ$$$$NNNNNNNN",
"nnnnNNdd  OOFFFFRRRREEEEEEEERRRRRRRREEEEEEEERRRRZZZZ$$$$NNNNNNNN",
"nnNNNNdd  OXFFFFRRRREEEEEEEERRRRRRRREEEEEEEERRRRZZZZ$$$$NNNNNNNN",
"NNNNnnbbXXOOFFFFRRRREEEEEEEERRRRRRRREEEEEEEERRRRZZZZ$$$$NNNNNNnn",
"NNNNnnbbXXOOFFFFRRRREEEEEEEERRRRRRRREEEEEEEERRRRZZZZ$$$$nNNNNNnn",
"NNnnNNNN++++6666UUUUTTTTTTTTHHHHJJJJRRRRRRRRUUUU5555%%%%nnNNNNnn",
"NNnnNNNN++++6666UUUUTTTTTTTTHHHHJJJJRRRRRRRRUUUU5555%%%%nnNNNNnn",
"NnnnNNNN++++6666UUUUTTTTTTTTHHHHJJJJRRRRRRRRUUUU5555%%%%nnnNNNNn",
"nnnnNNNN++++6666UUUUTTTTTTTTHHHHJJJJRRRRRRRRUUUU5555%%%%nnnNNNnn",
"nnNNNNnnNNNN++++::::eeeerrrrDDDDPPPPPPPPPPPP5555%%%%NNNnNNNNnnnn",
"nnNNNnnnNNNN++++::::eeeerrrrDDDDPPPPPPPPPPPP5555%%%%NNNNNNNNnnnn",
"NNNNNNnnNNNN++++::::eeeerrrrDDDDPPPPPPPPPPPP5555%%%%NNNNNNNNnnNN",
"NNNNNNnnNNNN++++::::eeeerrrrDDDDPPPPPPPPPPPP5555%%%%NNNNnnNNNnNN",
"NNNNNNNnnnNNqq88... 2222tttt11112222tttt1111XX@@ggggnnnnnnnnNNNN",
"NNNNNNNnnnNNqq88..  2222tttt11112222tttt1111XX@@ggggnnnnnnnnNNNN",
"nNNNNNNNnnMMiiii....2222tttt11112222tttt1111XX@@ggggnnnnNNnNNNnn",
"nNNNNNNNnnMMiiii....2222tttt11112222tttt1111XX@@ggggnnnnNNNNNnnn",
"nnNNNNNNggggqqww9999..  ====@@@@..  ====@@@@00990000ggggnNNNNNnn",
"nnNNNNNNggggqqww9999..  ====@@@@.. .====@@@@00990000ggggnnNNNNnn",
"nnnNnnnngggg99909999..  ====@@@@....====@@@@99990000ggggnnnnNNNn",
"nnNNnnnngggg99009999..  ====@@@@....====@@@@99990000ggggnnnnNNNn",
"NNNNnNNNMNNNgggg00009999ww000000993399qq00000000ggggNNNNNNNNNNNN",
"NNNNnnNNMMNNgggg00009999ww000000993399qq00000000ggggNNNNNNNNNNNN",
"jjvvNNNNMMMMgggg0000009q00000000993377qq00000000ggggNNNNNNNNvvjj",
"jjvvNNNNMMMMgggg0000000000000000993377qq00000000ggggNNNNNNNNvvjj",
"ddxxNNNnnnnnNNNnNNNNNNNnnnnnNNNnNNNNnnnnnNNNNNNnMNNNNNNNNnNNvvdd",
"ddxxNNNnnnNnNNnnNNNNNNNNnnnnNNNnNNNNnnnnNNNNNNNNMMNNNNNNnnNNvvdd",
"NNNNNNNNNNNNNNNNNNNNNNNNNNnnNNNNNNNNnnNNNNNNNNNNNNNNNNnnNnnnNNNN",
"NNNNNNNNNNNNNNNnnNNNNNNNNNNNNNNNnNNNNNNNNNNNNNNNNNNNNNNnNnnnNNNN",
"NNNNNNNNNNNNNNnNnnNNNNnnNNNNNNNNNNNNNNNNnnNNNNnnNNnNNNnnNNnnNNNN",
"NNNNNNNNNNNNNNNnnnNNNNnnNNNNNNNNNNNNNNNNnnNNNNnnnNnnNNNNNNNNNNNN",
"NNbbxxxxxkbbNNNNNNNNNNNNNNxxxxxxxxxxxxNNNNNNNNNNNNNNNNNNNNNNNNNN",
"NNbbxxxxxkbbNNNNNNNNNNNNNNxxxxxxxxxxxxNNNNNNNNNNNNNNNNNNNNNNNNNN"
};
