/* XPM */
static char *bb3408a505b24e42ef6a283cab3f0336fBXjXC5eQjiNLBCU[] = {
/* columns rows colors chars-per-pixel */
"64 64 101 2 ",
"   c #90B85E",
".  c #97BC61",
"X  c #98BD60",
"o  c #A9BE68",
"O  c #B7BF70",
"+  c #BCBD73",
"@  c #C2BC77",
"#  c #CAB77A",
"$  c #C4BC7A",
"%  c #CCBC7F",
"&  c #D1BF7E",
"*  c #9FC265",
"=  c #A4C363",
"-  c #ABC367",
";  c #AEC966",
":  c #ACC169",
">  c #B2C76B",
",  c #B4CD6A",
"<  c #B6D16A",
"1  c #BED46E",
"2  c #BAD96B",
"3  c #BCC172",
"4  c #BFCC71",
"5  c #BFD570",
"6  c #C2CC6E",
"7  c #C0D36F",
"8  c #CAC576",
"9  c #C5CD73",
"0  c #C8C976",
"q  c #C5C279",
"w  c #CCC47A",
"e  c #CBCC7B",
"r  c #D0C27E",
"t  c #C2D472",
"y  c #C9D37C",
"u  c #C5D879",
"i  c #CFBA81",
"p  c #D7B787",
"a  c #D5BC83",
"s  c #D9BC86",
"d  c #DCB789",
"f  c #DEBC8E",
"g  c #DFBD90",
"h  c #E1B78D",
"j  c #E3B691",
"k  c #E2BD93",
"l  c #E5BD9A",
"z  c #E9BD9D",
"x  c #CECE81",
"c  c #D3C382",
"v  c #D2CC85",
"b  c #D2C38B",
"n  c #DAC38C",
"m  c #D6CB8A",
"M  c #D9CB8E",
"N  c #CDD583",
"B  c #D1D187",
"V  c #D5D38D",
"C  c #DEC291",
"Z  c #DDC792",
"A  c #DECA95",
"S  c #DCCD99",
"D  c #DFCC98",
"F  c #D7D390",
"G  c #DBD295",
"H  c #DAD395",
"J  c #DDD097",
"K  c #DCD296",
"L  c #DED098",
"P  c #DED299",
"I  c #DED29A",
"U  c #E0C094",
"Y  c #E2C297",
"T  c #E3C299",
"R  c #E4C098",
"E  c #E2C598",
"W  c #E7C19D",
"Q  c #E4C59C",
"!  c #E6C79F",
"~  c #E1CC9A",
"^  c #E2CF9E",
"/  c #E0D19B",
"(  c #E2D09F",
")  c #E7C7A0",
"_  c #E9C5A0",
"`  c #E7C9A2",
"'  c #E7CBA3",
"]  c #E6CDA2",
"[  c #E7CEA4",
"{  c #E8CBA4",
"}  c #E8CEA5",
"|  c #EACFA8",
" . c #EECFAF",
".. c #E3D1A0",
"X. c #E6D1A3",
"o. c #E8D0A7",
"O. c #E8D1A7",
"+. c #EBD0AB",
"@. c #EAD2AB",
"#. c #ECD0AC",
"$. c #EFCFB0",
/* pixels */
"t t t 7 7 7 7 7 t t t t t t t t t t t t t t 1 1 t t n n z z R R m m e e c c f f l l C C v v M M l l l l v v 1 1 1 1 t t t t 1 1 ",
"t t t t 7 7 7 7 t t t t t t t t t t t t t t 1 1 t t n n z z R R m m e e c c f f l l C C v v M M l l l l v v 1 1 1 1 t t t t 1 1 ",
"t t t t t t 1 t 7 t 7 t t 1 1 1 1 1 1 1 1 1 1 1 1 1 0 0 & & w w 1 1 9 9 r r r r w w 8 8 1 1 9 9 w w w w 9 9 1 1 1 1 t t t t t 7 ",
"t t t t t t t t 7 7 7 t t 1 1 1 1 1 1 1 1 1 1 1 1 1 0 0 & & w w 1 1 9 9 r r r r w w 8 8 1 1 9 9 w w w w 9 9 1 1 1 1 t 7 t t t t ",
"t t t t t t t t t t 7 7 1 1 t t t t t t t t t t t t t t t t t t t t t t t t t t t t t t t t t t t t t t t t t t 1 1 1 1 t t t t ",
"t t t t t t t t t t 7 7 1 1 t t t t t t t t t t t t t t t t t t t t t t t t t t t t t t t t t t t t t t t t t t 1 1 1 1 t t t t ",
"1 1 t t 1 1 t 1 t t 1 1 1 1 N N J J J L J J J L J J J J J G G G L L J J G G G G G G G J J J J J G G G G L L V V t t 1 1 t t t t ",
"1 1 t t 1 1 1 1 t t 1 1 1 1 N N J J J L J J L L J J J J J G G G L L J J G G G G G G J J J J J J G G G G L L V V t t 1 1 7 7 t t ",
"; ; 1 1 t t t t 1 1 t t N N ( (  . .#.#.#.#.+.+.#.#.#.#.#.#.#.#.#.#.#.#.#.#.#.#.#.#.#.#.#.#.#.#.#.#. .#.$.$.o.o.V V t t 1 1 7 7 ",
"; ; 1 1 t t t t 1 1 t t N N ( (  . .#.#.#.#.#.+.#.#.#.#.#.#.#.#.#.#.#.#.#.#.#.#.#.#.#.#.#.#.#.#.#.#.#.#.$.$.o.o.V V t t 1 1 7 7 ",
"= = ; ; 1 1 t t 7 7 e e ~ ~ [ [ ] ] ] ] ' ' ' ' ' ' ' ' ' ' { { { { ' ' ' ' ' ' ' ' ' ' ' ' ' ' ' ' } } ] ] ] ] ] ] v v t t t t ",
"= = ; ; 1 1 t t 7 7 e e ~ ~ [ [ ] ] ] ] ' ' ' ' ' ' ' ' ' ' { { { { ' ' ' ' ' ' ' ' ' ' ' ' ' ' ' ' [ } ] ] ] ] ] ] v v t t t t ",
"= = = = ; ; 1 1 e e s s k k m m x x n n k k f f f f f f g g g g g g f g f f f f f f f f f f f f k k f f v v x x C C f f w w t t ",
"= = = = ; ; 1 1 e e s s k k m m x x n n k k f f f f f f g g g g g g g g f f f f f f f f f f f f k k f g v v x x C C f f w w t t ",
"= = o X = = 1 1 e e c c w w 1 1 6 6 a a k k Y Y Y Y Y Y n n w w 8 8 c c Y Y Y Y Y Y Y Y Y Y Y Y k k d d & & 8 8 w 8 w w e w t t ",
"= = o o = = 1 1 e e c c w w 1 1 6 6 a a k k Y Y Y Y Y Y n n w w 8 8 c c Y Y Y Y Y Y Y Y Y Y Y Y k k d d & & 8 8 w w w w e e t t ",
"= = = = = = , , 1 1 t t t t t t e e n n ! ! o.o.+.+.+.+.L L y y t t V V +.+.+.+.o.o.o.o.o.o.+.+.] ] Y Y h h n n y y t t t t < < ",
"= = = = = = , , 1 1 7 t t t t t e e n n ! ! o.o.+.+.+.+.L L y y t t V V +.+.+.+.o.o.o.o.o.+.+.+.] ] Y Y k h n n y y t t t t < < ",
". . = = = = = = , , t t c c Z Z ( ( ] ] } } +.+.+.+.+.+.X.X.L / L L ....+.+.+.+.+.+.+.+.+.+.+.+.} } ] ] ' ' ] ] ( ( n n q q ; ; ",
". . = = = = = = , , t t c c Z Z ^ ( ] ] } } +.+.+.+.+.+.X.X./ / L L ....+.+.+.+.+.+.+.+.o.o.o.+.} } ] ] ' ' ] ] ( ( n n q q ; ; ",
"* * ; ; = = + + w w c c d d k k T T T T Y Y Y Y Y Y Y Y Y Y R R R R R R R R R R R R T T Y Y Y Y Y Y Y Y ! E ! ! W W l l d d $ $ ",
"* * ; ; = = + + w w c c d d k k T T T T Y Y Y Y Y Y Y Y Y Y R R R R R R R R R R R R T T Y Y Y Y Y Y Y Y ! ! Q ! W W l l d d $ $ ",
"= = < < > > $ $ p p d d d d f f g g g g f f f f f f f f g g g g g g s s a a & & & & a a f f g g g g g g d f s s a a % % i i % % ",
"= = < < > > $ $ p p d d d d f f g g g g f f f f f f f f g g g g g g s s a a & a & & a a f f g g g g g g d d s s a a % % i i % % ",
". . , , 1 1 > > $ $ d d f f Y Y ] ] ] ] ' ' ' ' ' ' ' ' ' ] ] ] ' { M M t t t t t t e e S S { { ] ] ' ' k Y c c 9 9 > > : : : : ",
". . , , 1 1 > > $ $ d d f f Y Y ] ] ] ] ' ' ' ' ' ' ' ' ' ' ' ] ' ' M M t t t t t t e e S S { { ] ] ' ' k k c c 9 9 > > : : : : ",
"    ; ; ; ; 3 3 b b ! ! ! ! [ [ +.+.+.+.+.+.+.+.+.+.+.+.+.+.+.+.+.+.....F F V V V V G G o.o.+.+.+.+.+.+.' ' ~ ~ F F w w @ @ + + ",
"    ; ; ; ; 3 3 b b ! ! ! ! [ [ +.+.+.+.+.+.+.+.+.+.+.+.+.+.+.+.+.+.....F F V V V V G G o.o.+.+.+.+.+.+.' ' ~ ~ F F w w @ @ + + ",
"X X - - + + p p R R Q Q Q Q Q ! ! ! ! ! ! ! ) ) ) ) ! ! ! ! ! ! ! ! ! ! ! ! ! ! ! ! ! ! ! ! ! ! Q Q Q Q ! ! Q Q ! ! k k h h d d ",
"X X - - + + p p R R Q Q Q Q Q ! ! ! ! ! ! ! ) ) ) ) ! ! ! ! ! ! ! ! ! ! ! ! ! ! ! ! ! ! ! ! ! ! Q Q Q Q ! ! Q Q ! ! k k h h d d ",
"= = O O p p d d f f g g f f f f f f f f f f s s s s f f f f f f f f f f g g g g g g f f f f f f f f f f f f f f k f f f d d s s ",
"= = O O p p d d f f g g f f f f f f f f f f s s s s f f f f f f f f f f g g g g g g f f f f f f f f f f f f f f k k f f d d s s ",
"= = > > e e s s k k ! ! ! ! Q Q ! ! ! ! v v 6 6 0 0 M M ! ! ! Q Q Q Q Q ! ! Q Q Q Q Q Q Q Q Q Q ! ! Q Q Q Q Q Q Q Q k k a a O O ",
"= = > > e w s s k k ! ! ! ! Q Q ! ! ! ! v v 6 6 0 0 M M ! ! ! ! Q Q Q Q ! ! Q Q Q Q Q Q Q Q Q Q ! ! Q Q Q Q Q Q Q Q k k i a O O ",
"= = ; ; e e Z Z A E L L o.o.#.#.#.#.+.+.F F y y N N L L +.+.+.+.+.+.+.+.+.+.+.+.+.+.+.+.+.+.+.+.+.+.+.+.+.+.+.+.+.+.' ' b b O O ",
"= = ; ; e e Z Z A A L L o.o.#.#.#.#.+.+.F F y y N N L L +.+.+.+.+.+.+.+.+.+.+.+.+.+.+.+.+.+.+.+.+.+.+.+.+.+.+.+.+.+.! ' b b O O ",
"- = + + f f ) ) V V y y ~ ~ } } X.X.] ] ] ] ^ ^ ] ] [ [ } } [ [ ] ] [ [ [ [ [ [ [ [ [ [ ] ] [ } } } } } } } [ [ ] ] } } ! ! s s ",
"= = + + f f ) ) V V y y ~ ~ } } X.X.] ] ] ] ^ ^ ] ] [ [ } } [ [ ] ] [ [ [ [ [ [ [ [ [ [ ] ] } } } } } } } } [ [ ] ] } } Q Q s s ",
"q q p p j j k k x x 9 9 n n m m x x n n k k k k k k k k k k g g g g g g g g g g g g g g g g k k k k k k k k g g C C Y Y k k j j ",
"q q p p j j k k x x t t n n m m x x n n k k k k k k k k k k g g g g g g g g g g g g g g g g k k k k k k k k g g C C Y Y k k j j ",
"q q $ $ $ $ w w 9 9 7 7 8 8 w w v v C C k k n n w w 8 8 c c C C Y Y Y Y C C C Y Y Y Y Y U Y c c w w w w n n k k d d # # + + @ @ ",
"q q $ $ $ $ w w 9 9 7 7 8 8 w w v v C C k k n n w w 8 8 c c C C Y Y Y Y Y C C Y Y Y Y Y U Y c c w w w w n n k k d d # # + + @ @ ",
"> > o o : : 4 4 t t t t t t F F o.o.| | +.+.L L y y t t B B ] ] | | } } } } } } } } | | } } V V t t t t G G ' { g g q q : : : : ",
"> > o o : : 4 4 t t t t y t F F o.o.| | +.+.L L y y t t B B ] ] | | } } } } } } } } | | } } V V t t t t G G ' ' g g q q : : : : ",
"q q % % % % a a M M L L L L X.X.+.+.+.+.+.+.o.o.L L J J ( ( +.+.+.+.+.+.+.+.+.+.+.+.+.+.+.+.X.X.J J J J X.X.| | ' ' S S b b % % ",
"q q % % % % a a M M L L L L X.X.+.+.+.+.+.+.o.o.L L G G ( ( +.+.+.+.+.+.+.+.+.+.+.+.+.+.+.+.X.X.J J J J X.X.| | ' ' S S b b % % ",
"f f j j h h d d k k ! ! ! ! T T Y Y Y Y E Y T T R R ! ! ! Q T T Y Y Y Y Y Y Y Y Y Y Y Y Y Y Q Q ! ! _ _ ! ! ! ! ! ! ) ) z z k k ",
"f f j j h h d d k k ! ! ! ! R T Y Y Y Y Y Y Q Q Q R ! ! ! R T T Y Y Y Y Y Y Y Y Y Y Y Y Y Y Q Q ! ! _ _ Q ! ! ! ! ! ) ) z z k k ",
"s s s s d d f f g g g g g f g g g g f f f f f f f f f g g g f f f f f f f f f f f f f f f f f f s s p p s s s s s s s s s s s s ",
"s s s s d d f f g g g g f f g g g g f f f f f f f f f g g g f f f f f f f f f f f f f f f f f f s s p p s s s s s s s s s s s s ",
"9 9 w w f f ! ! ] ] Q Q ! Q Q Q ' ' ' Q Q ! Q ' Q Q ! ! ' Q Q Q Q ! ! Q Q Q ' ' Q Q ' ' ' ' k k a a 0 0 t t 9 9 9 9 9 9 9 9 9 9 ",
"9 9 w w f f ! ! ] ] Q Q ! Q Q Q ' ' ! Q Q ! ' ' Q Q ! ! ' ' Q Q Q Q Q Q Q Q ! ' Q Q ' ' ' ' k k a a 0 0 t t 9 9 9 9 9 9 9 9 9 9 ",
"N N A A ! ! | | +.+.+.+.+.+.J J F F o.o.#.#.+.+.+.+.+.+.+.+.+.+.+.+.+.+.+.+.#.#.+.+.+.+.+.+.{ { ~ ~ V V u u 2 2 2 2 1 1 1 1 1 1 ",
"N N A A ! ! | | +.+.+.+.+.+.J J F F o.o.#.#.+.+.+.+.+.+.+.+.+.+.+.+.+.+.+.+.#.#.+.+.+.+.+.+.{ { ~ ~ V V u u 2 2 2 2 1 1 1 1 1 1 ",
"A A { { ' ' ' ' ' ' { { ' ' m m e e G G ] ] ' ' ' ' ' ' ' ' ' ' ' ' ' ' ' ' ^ ( ^ ^ ' ' ' ' ' ' { { ' ' m m 9 9 9 9 t t 5 5 t t ",
"A A ' ' ' ' ' ' ' ' { { ' ' m m e e G G ] ] ' ' ' ' ' ' ' ' ' ' ' ' ' ' ' ' ( ( ^ ^ ' ' ' ' ' ' { { ' ' m m 9 9 9 9 t t 5 5 t t ",
"g g g g g g f f f f f f f f s s c c y y v v f f f f f f f f f f f f g g n n e e x x f f f f f f g g g g s s s s s s e e 1 1 1 1 ",
"g g k k g g f f f f f f f f s s c c y y v v f f f f f f f f f f f f g g n n e e x x f f f f f f g g g g s s s s s s e e 1 1 1 1 ",
"w w w w w w w w w w w w w w w w e e 1 1 9 9 w w w w w w w w w w w w w w 0 0 7 7 9 9 w w w w w w w w w w w w r r w w 9 9 t t 1 1 ",
"w w w w w w w w w w w w w w w w e e 1 1 9 9 w w w w w w w w w w w w w w 0 0 7 7 9 9 w w w w w w w w w w w w w r w w 9 9 t t 1 1 ",
"1 1 1 1 1 1 1 1 1 1 1 1 1 1 1 t 1 1 t t 1 1 1 1 1 1 1 1 1 1 7 1 1 1 1 1 1 1 t t 1 1 1 1 1 1 2 2 1 1 2 2 2 2 1 1 1 1 1 1 1 1 1 1 ",
"1 1 1 1 1 1 1 t 1 1 1 1 1 1 1 1 1 1 t t 1 1 1 1 1 1 1 1 1 1 t 7 1 1 1 1 1 1 t t 1 1 1 2 1 1 2 2 1 1 1 1 1 2 1 1 1 1 1 1 7 1 1 1 ",
"1 1 1 1 1 1 1 t 1 1 1 1 1 1 1 1 1 1 t t 5 5 1 1 1 1 1 1 1 1 1 7 1 1 1 1 1 1 1 1 t t t 1 5 t t t t t 7 7 t t t t t t t t t t 1 1 ",
"1 1 1 1 1 1 1 5 1 1 1 1 1 1 1 1 1 1 t t 5 5 1 1 1 1 1 1 1 1 1 1 1 1 1 1 1 1 1 1 t t t 1 t t t t t t 7 t t t t t t t t t t t 1 1 "
};
